<svg width="37" height="30" viewBox="0 0 37 30" fill="none" xmlns="http://www.w3.org/2000/svg">
<path fill-rule="evenodd" clip-rule="evenodd" d="M11.2445 26.2212H18.3762V28.6793H20.2105V30H9.41016V28.6793H11.2445V26.2212ZM35.724 24.6096C33.5349 28.3997 28.6876 29.6987 24.8969 27.51C21.1062 25.3215 19.807 20.4736 21.9958 16.6838C24.1843 12.8926 29.031 11.5943 32.8221 13.7822C36.6133 15.9712 37.9119 20.8186 35.7236 24.6097L35.724 24.6096ZM31.1142 16.7399C30.4609 16.362 31.0349 15.3683 31.6888 15.7455C34.3956 17.308 35.3225 20.7694 33.7606 23.4748C33.3827 24.1298 32.3883 23.5552 32.7656 22.9015C34.0111 20.7443 33.2714 17.9863 31.1142 16.7397V16.7399ZM31.0094 21.8883C30.3242 23.0741 28.8056 23.4815 27.6186 22.7963C26.4311 22.1104 26.0242 20.5924 26.7101 19.4055C27.3947 18.2179 28.9135 17.811 30.1009 18.4969C31.2884 19.1822 31.6947 20.7003 31.0094 21.8883ZM3.09534 3.09548H26.5247V11.4319C24.1223 12.0415 21.9571 13.5801 20.6232 15.8908C19.6187 17.6321 19.229 19.5605 19.3854 21.4261H3.09571V3.09548H3.09534ZM10.5755 13.0145C9.64034 12.0099 11.1678 10.5891 12.1031 11.5937L13.514 13.1147L17.5576 9.17772C18.5401 8.2218 19.9949 9.71558 19.011 10.6726L14.1861 15.3718C13.7644 15.7645 13.1033 15.7407 12.7119 15.3184L10.5755 13.0145L10.5755 13.0145ZM2.33102 0.000179816H27.2902C28.5695 0.000179816 29.6214 1.05096 29.6214 2.33087V11.1671C28.9704 11.1155 28.3196 11.1328 27.6787 11.2133V2.33068C27.6787 2.1139 27.507 1.94217 27.2902 1.94217H2.33102C2.11963 1.94217 1.943 2.11864 1.943 2.33068V22.9802C1.943 23.197 2.11473 23.3682 2.33102 23.3682H19.7524C19.9525 24.0422 20.2292 24.6937 20.5744 25.3109H2.33069C1.0532 25.3109 0 24.2579 0 22.9802V2.33069C0 1.04714 1.04652 0 2.33069 0L2.33102 0.000179816Z" fill="#007F5F"/>
</svg>
