<svg width="38" height="30" viewBox="0 0 38 30" fill="none" xmlns="http://www.w3.org/2000/svg">
<path d="M35.5369 0H1.67919C0.77148 0 0 0.862364 0 1.95166V23.6914C0 24.5084 0.77148 25.2345 1.67919 25.2345H14.7502C14.2964 26.1422 13.3433 27.5038 11.4826 28.5477H7.89706C7.48855 28.5477 7.17093 28.8654 7.17093 29.2739C7.17093 29.6824 7.48856 30 7.89706 30H29.6368C30.0453 30 30.3629 29.6824 30.3629 29.2739C30.3629 28.8654 30.0453 28.5477 29.6368 28.5477H25.779C23.9182 27.5493 22.9652 26.1422 22.5113 25.2345H35.6277C36.5355 25.2345 37.3069 24.5084 37.3069 23.6914L37.3068 1.95166C37.2161 0.862364 36.4446 0 35.5369 0ZM18.8803 21.4674C19.4249 21.5581 19.8787 22.0119 19.9696 22.5567C20.1512 23.5551 19.2888 24.3721 18.3358 24.1905C17.7912 24.0998 17.3374 23.646 17.2465 23.1012C17.0649 22.1482 17.8819 21.2858 18.8803 21.4674ZM35.673 19.2435H1.54304V2.99541C1.54304 2.04235 2.22382 1.31622 3.08618 1.31622H34.1753C34.9923 1.31622 35.7185 2.04235 35.7185 2.99541L35.7183 19.2435H35.673Z" fill="#007F5F"/>
<path d="M25.5974 5.67321C24.4175 3.67621 23.1466 3.44928 21.2404 3.40393C20.9228 4.08471 20.1058 4.72015 18.608 4.72015C17.1102 4.72015 16.2934 4.08471 15.9755 3.40393C14.0694 3.44929 12.7986 3.67621 11.6185 5.67321C11.1647 6.39934 10.6201 7.53398 10.3477 8.30565L13.1615 10.6203L13.6607 10.1211V18.1543C13.6607 18.1543 15.0676 18.8805 18.6531 18.8805C22.2386 18.8805 23.6455 18.1543 23.6455 18.1543L23.6457 10.1211L24.0995 10.6203L26.9589 8.30565C26.6411 7.53402 26.0058 6.39938 25.5973 5.67321H25.5974Z" fill="#007F5F"/>
</svg>
