<svg width="29" height="30" viewBox="0 0 29 30" fill="none" xmlns="http://www.w3.org/2000/svg">
<path d="M15.6958 15.426C15.809 15.5382 15.9623 15.6008 16.1218 15.6H16.2598C16.4628 15.5521 16.6264 15.4021 16.6918 15.204L17.2918 13.404C17.3553 13.2377 17.3418 13.052 17.2549 12.8967C17.168 12.7414 17.0167 12.6327 16.8418 12.5999L13.8418 11.9999C13.6722 11.9662 13.4961 12.0073 13.359 12.1128C13.2219 12.2182 13.1369 12.3777 13.126 12.5504C13.115 12.7231 13.1792 12.8919 13.3018 13.0139L15.6958 15.426ZM15.9358 13.656L15.8578 13.89L15.5218 13.578L15.9358 13.656Z" fill="#007F5F"/>
<path d="M13.5775 22.2L11.1775 22.8C10.9801 22.8497 10.8213 22.9961 10.756 23.1888C10.6905 23.3816 10.7272 23.5943 10.8535 23.7539L12.5635 25.9139C12.6767 26.0572 12.8489 26.1411 13.0315 26.1419H13.1575C13.2667 26.1186 13.3674 26.0653 13.4479 25.9879C13.5285 25.9104 13.5857 25.8122 13.6135 25.7039L14.3215 22.9439C14.3619 22.8056 14.3511 22.6574 14.2911 22.5263C14.2312 22.3953 14.1261 22.2902 13.9951 22.2303C13.864 22.1703 13.7158 22.1596 13.5775 22.2ZM12.7435 24.216L12.3655 23.742L12.8935 23.61L12.7435 24.216Z" fill="#007F5F"/>
<path d="M9.93572 15.4381H10.0377L11.8377 15.1261C11.9965 15.0932 12.1351 14.9975 12.2221 14.8607C12.3091 14.724 12.3371 14.5578 12.2997 14.4001L11.9877 12.6001C11.9496 12.4582 11.8607 12.3352 11.738 12.2544C11.6152 12.1738 11.4671 12.1408 11.3217 12.1621L9.52172 12.4741C9.36497 12.5018 9.2256 12.5908 9.13446 12.7213C9.04333 12.8519 9.00783 13.0133 9.03571 13.17L9.34771 14.97C9.37783 15.1033 9.45246 15.2224 9.55933 15.3075C9.66634 15.3925 9.79909 15.4387 9.93572 15.4381ZM10.9137 13.4461L11.0157 14.0461L10.4157 14.1481L10.3137 13.5481L10.9137 13.4461Z" fill="#007F5F"/>
<path d="M27.5217 3.00001H26.5437L25.6737 0.408003C25.6344 0.291753 25.5605 0.190252 25.4618 0.117254C25.363 0.0442553 25.2444 0.00337867 25.1216 2.66246e-06H8.32163C8.19588 -0.000372346 8.07313 0.0388765 7.97088 0.112128C7.86863 0.185379 7.79188 0.288877 7.75163 0.408003L6.89962 3.00001H5.92164C5.60339 3.00001 5.29815 3.12638 5.07313 3.35149C4.848 3.57649 4.72164 3.88173 4.72164 4.20001V6.00001C4.72164 6.31826 4.84801 6.6235 5.07313 6.84852C5.29813 7.07365 5.60337 7.20001 5.92164 7.20001H6.58164L6.70164 8.32801C4.49489 9.04199 2.41076 10.0901 0.521795 11.436C0.246169 11.6383 0.0631708 11.9425 0.0135387 12.2809C-0.0360869 12.6191 0.0519131 12.9631 0.257788 13.236L1.45779 14.844L8.3218 23.8559L8.7418 27.8459C8.80292 28.4389 9.08244 28.988 9.52618 29.3861C9.9698 29.7843 10.5457 30.0031 11.1418 30H22.3018C22.8979 30.0031 23.4738 29.7843 23.9174 29.3861C24.3612 28.988 24.6407 28.4389 24.7018 27.8459L25.5178 20.1058C25.5664 20.0297 25.5972 19.9435 25.6078 19.8538L26.0938 15.0538C26.1062 14.9843 26.1062 14.9133 26.0938 14.8438L26.8618 7.19961H27.5218C27.8401 7.19961 28.1453 7.07323 28.3703 6.84812C28.5955 6.62312 28.7218 6.31788 28.7218 5.99961V4.19961C28.7218 3.88136 28.5955 3.57612 28.3703 3.35109C28.1453 3.12597 27.8401 2.99961 27.5218 2.99961L27.5217 3.00001ZM8.77155 1.2H24.6717L25.2717 3.00001H8.16579L8.77155 1.2ZM12.7556 7.20001C12.4076 7.20001 12.0615 7.22601 11.7175 7.27801L11.2916 7.32001C10.8116 7.37401 10.3316 7.44001 9.85155 7.52401L9.52755 7.58401C9.02957 7.67401 8.53754 7.79401 8.04557 7.92001L7.87157 7.96201L7.78757 7.20002H13.0135L12.7556 7.20001ZM1.22339 12.408C3.14012 11.0401 5.26851 9.99627 7.52355 9.31803C8.25856 9.09365 9.00579 8.9114 9.76157 8.77204L10.0616 8.71804C10.4216 8.65204 10.7756 8.60404 11.1356 8.55604L11.4716 8.52004L12.2156 8.44804H12.5996L13.3135 8.40004H15.0115L15.5095 8.43004L16.2955 8.50204L16.7755 8.55604C17.0575 8.59204 17.3335 8.64004 17.6155 8.68804L18.0235 8.76004C18.4375 8.83804 18.8455 8.92804 19.2235 9.03604L19.9075 9.28204L19.4695 10.638L19.1515 10.554L18.6235 10.416L18.0235 10.278L17.4835 10.17L16.8475 10.068L16.3015 9.99004L15.6535 9.92404L15.1135 9.88204H12.7195C12.4555 9.88204 12.1975 9.92404 11.9395 9.94804L11.5255 9.98404C11.1255 10.028 10.7255 10.084 10.3255 10.152C10.0555 10.2 9.79147 10.248 9.52747 10.308C9.26347 10.368 8.99947 10.434 8.72946 10.506H8.69946L8.00346 10.704C7.81146 10.758 7.62547 10.818 7.46944 10.872C6.96544 11.04 6.46746 11.226 5.97542 11.4301C5.81342 11.4961 5.66342 11.5741 5.50742 11.6461C5.18342 11.7901 4.85942 11.9401 4.54141 12.1021C4.35541 12.1981 4.18141 12.3061 3.99542 12.4021C3.71342 12.5581 3.43142 12.7141 3.16144 12.8881C2.89145 13.0621 2.78944 13.1341 2.60944 13.2541C2.42944 13.3741 2.26742 13.4701 2.10544 13.5901L1.24143 12.4501C1.24143 12.4501 1.19343 12.4801 1.22343 12.4081L1.22339 12.408ZM19.5716 14.31C19.8669 14.5919 20.1196 14.9153 20.3216 15.27V15.306C20.4125 15.4624 20.4926 15.6248 20.5616 15.792C20.6225 15.9408 20.6746 16.0932 20.7176 16.248L20.7476 16.368C20.7776 16.494 20.8016 16.62 20.8256 16.752C20.8496 16.884 20.8256 16.842 20.8256 16.884C20.8698 17.2185 20.8698 17.5576 20.8256 17.892V18.024C20.8256 18.066 20.7776 18.2881 20.7476 18.4141V18.5101C20.7048 18.6671 20.6527 18.8213 20.5916 18.9721L20.5616 19.0441C20.4983 19.1923 20.4262 19.3366 20.3456 19.4761C19.699 20.6393 18.5392 21.4273 17.2196 21.6001L17.6455 20.2861L19.5716 14.31ZM13.5716 28.71C13.5493 28.7229 13.5218 28.7229 13.4996 28.71L9.37155 23.31L2.81955 14.622L3.27555 14.304C3.44355 14.19 3.61155 14.076 3.78556 13.968C4.04956 13.806 4.31958 13.65 4.58957 13.5C4.75157 13.41 4.91357 13.314 5.07558 13.23C5.38758 13.068 5.71158 12.918 6.03558 12.774L6.4256 12.594C6.88762 12.402 7.35558 12.222 7.83558 12.066L8.35757 11.898C8.57957 11.826 8.80755 11.766 9.04157 11.706C9.54557 11.568 10.0316 11.46 10.5296 11.376C10.9016 11.31 11.2736 11.256 11.6516 11.214L12.0176 11.184C12.2696 11.184 12.5216 11.136 12.7796 11.124H15.0295L15.5156 11.166L16.1156 11.226L16.6076 11.292L17.2076 11.388L17.6996 11.484L18.2996 11.622L18.7856 11.748L19.0616 11.832L16.0616 21.2461L15.8156 22.0081L15.4136 23.2501V23.2921L13.6676 28.6921C13.6511 28.7145 13.6222 28.7241 13.5956 28.7161L13.5716 28.71ZM9.92963 27.714L9.71963 25.692L12.0956 28.8H11.1417C10.8452 28.8002 10.559 28.6905 10.3385 28.4922C10.118 28.2939 9.97877 28.0209 9.94763 27.726L9.92963 27.714ZM23.4717 27.714C23.4405 28.01 23.3004 28.2838 23.0786 28.4823C22.8569 28.6807 22.5694 28.7897 22.2717 28.7881H14.8736L16.5536 23.6101V23.5681L16.8176 22.8001C17.688 22.7832 18.5414 22.5562 19.3051 22.1382C20.0687 21.7203 20.7201 21.1241 21.2036 20.4001H24.2576L23.4717 27.714ZM21.9057 18.9C21.9057 18.804 21.9597 18.708 21.9837 18.606C22.0077 18.504 21.9837 18.474 22.0257 18.408C22.0677 18.342 22.0617 18.192 22.0737 18.078C22.0857 17.964 22.0737 17.964 22.0737 17.904V17.394C22.0728 17.1935 22.0608 16.9931 22.0377 16.794V16.62C22.0377 16.452 21.9837 16.284 21.9417 16.116C21.9417 16.05 21.9057 15.984 21.8877 15.918C21.8697 15.852 21.8277 15.702 21.7917 15.6H24.7497L24.3717 19.2H21.7917L21.8217 19.092L21.9057 18.9ZM24.9057 14.4001H21.2036C20.8659 13.8976 20.446 13.4554 19.9616 13.0921L20.4416 11.6161L21.0416 9.70212C21.0589 9.63925 21.0709 9.575 21.0776 9.51012C21.0911 9.45687 21.1011 9.40275 21.1076 9.34812C21.1131 9.28025 21.1131 9.212 21.1076 9.14412C21.1105 9.09412 21.1105 9.04412 21.1076 8.99412C21.0859 8.92175 21.0578 8.8515 21.0236 8.78412C20.9669 8.6325 20.8693 8.49962 20.7416 8.40012C20.6816 8.342 20.61 8.297 20.5316 8.26812L19.6017 7.93212C19.2017 7.82812 18.8017 7.73612 18.4017 7.65612L18.2277 7.62612C17.8856 7.56012 17.5377 7.49412 17.1957 7.44612L16.7217 7.37412C16.4697 7.34412 16.2117 7.30812 15.9597 7.28412H15.5577C15.2877 7.28412 15.0117 7.24212 14.7417 7.23012H25.6556L24.9057 14.4001ZM27.5217 6.0001H5.9217V4.2001H27.5217V6.0001Z" fill="#007F5F"/>
<path d="M23.8196 13.1999H23.8856C24.0349 13.2007 24.1791 13.1458 24.29 13.0459C24.401 12.9461 24.4707 12.8084 24.4856 12.66L24.8636 9.05996C24.8861 8.84558 24.7926 8.63545 24.6181 8.50882C24.4437 8.3822 24.2151 8.3582 24.0181 8.44582C23.8212 8.53357 23.6861 8.71957 23.6636 8.93395L23.2856 12.534C23.2671 12.6933 23.3131 12.8533 23.4135 12.9785C23.5139 13.1036 23.6601 13.1833 23.8196 13.1999Z" fill="#007F5F"/>
<path d="M8.32154 15.3002C8.32154 14.9023 8.16353 14.5208 7.88217 14.2395C7.60092 13.9582 7.21942 13.8002 6.82153 13.8002C6.42365 13.8002 6.04217 13.9582 5.76089 14.2395C5.47952 14.5208 5.32153 14.9023 5.32153 15.3002C5.32153 15.6981 5.47953 16.0795 5.76089 16.3608C6.04215 16.6422 6.42365 16.8002 6.82153 16.8002C7.21942 16.8002 7.60089 16.6422 7.88217 16.3608C8.16355 16.0796 8.32154 15.6981 8.32154 15.3002ZM6.82153 15.6002C6.70016 15.6002 6.59079 15.527 6.54441 15.4149C6.49791 15.3029 6.52366 15.1738 6.60941 15.088C6.69516 15.0023 6.82428 14.9765 6.93629 15.023C7.04841 15.0694 7.12154 15.1788 7.12154 15.3002C7.12154 15.3798 7.08991 15.456 7.03366 15.5123C6.97741 15.5685 6.90116 15.6002 6.82153 15.6002Z" fill="#007F5F"/>
<path d="M14.0215 17.3999C13.6237 17.3999 13.2422 17.5579 12.9609 17.8393C12.6795 18.1205 12.5215 18.502 12.5215 18.8999C12.5215 19.2978 12.6795 19.6793 12.9609 19.9605C13.2422 20.2419 13.6237 20.3999 14.0215 20.3999C14.4194 20.3999 14.8009 20.2419 15.0822 19.9605C15.3636 19.6793 15.5215 19.2978 15.5215 18.8999C15.5215 18.502 15.3635 18.1205 15.0822 17.8393C14.8009 17.5579 14.4194 17.3999 14.0215 17.3999ZM14.0215 19.1999C13.9002 19.1999 13.7908 19.1268 13.7444 19.0147C13.6979 18.9027 13.7237 18.7735 13.8094 18.6878C13.8952 18.602 14.0243 18.5763 14.1363 18.6228C14.2484 18.6691 14.3216 18.7785 14.3216 18.8999C14.3216 18.9795 14.2899 19.0558 14.2337 19.112C14.1774 19.1683 14.1012 19.1999 14.0215 19.1999Z" fill="#007F5F"/>
<path d="M11.1836 18.2221C11.0706 18.0827 10.9011 18.0013 10.7216 18.0001H7.72156C7.56944 17.9996 7.42269 18.0569 7.31119 18.1605C7.1997 18.2641 7.13169 18.4061 7.12107 18.558C7.11032 18.7098 7.15769 18.86 7.25357 18.9781L9.65357 21.9781C9.76794 22.1191 9.94007 22.2008 10.1216 22.2001C10.1694 22.2059 10.2177 22.2059 10.2656 22.2001C10.3803 22.1736 10.4847 22.1141 10.5658 22.0288C10.6468 21.9434 10.7011 21.836 10.7216 21.7201L11.3216 18.7201C11.3531 18.5418 11.3023 18.3587 11.1836 18.2221ZM9.78556 20.2201L8.96956 19.2001H9.98956L9.78556 20.2201Z" fill="#007F5F"/>
</svg>
