<svg width="30" height="30" viewBox="0 0 30 30" fill="none" xmlns="http://www.w3.org/2000/svg">
<path d="M18.1593 10.5769C17.2442 10.5769 16.2976 10.9295 15.6034 11.6347L15.0039 12.2437L14.4043 11.6347C13.7102 10.9296 12.7635 10.5769 11.8484 10.5769C10.9018 10.5769 9.9552 10.9615 9.2294 11.6987C7.87252 13.141 7.9357 15.4487 9.35563 16.891L14.5936 22.2115C14.8145 22.4358 15.2247 22.4358 15.4455 22.2115L20.7151 16.859C22.135 15.4167 22.135 13.109 20.7151 11.6667C19.9895 10.9295 19.0744 10.5769 18.1593 10.5769L18.1593 10.5769Z" fill="#007F5F"/>
<path d="M15.0038 6.5705C15.5401 6.5705 15.9504 6.15378 15.9504 5.60896V0.961536C15.9504 0.416719 15.5401 0 15.0038 0C14.4674 0 14.0571 0.416719 14.0571 0.961536V5.60896C14.0571 6.15389 14.4674 6.5705 15.0038 6.5705Z" fill="#007F5F"/>
<path d="M9.38732 8.65388C9.79758 8.30134 9.8291 7.69234 9.51356 7.30778L6.57902 3.7501C6.23195 3.33338 5.6324 3.30135 5.2538 3.62187C4.84354 3.97441 4.81201 4.58341 5.12756 4.96797L8.0621 8.52565C8.2514 8.74997 8.50388 8.87819 8.7879 8.87819C9.00873 8.87819 9.22957 8.78199 9.38735 8.65377L9.38732 8.65388Z" fill="#007F5F"/>
<path d="M5.47446 14.6795C5.91625 14.6795 6.32637 14.359 6.38956 13.8782C6.48427 13.3654 6.13709 12.8526 5.63224 12.7564L1.11999 11.9872C0.61515 11.891 0.11031 12.2436 0.0155947 12.7564C-0.0791203 13.2692 0.26807 13.782 0.772921 13.8782L5.31672 14.6795H5.47446Z" fill="#007F5F"/>
<path d="M6.13719 19.5192L2.19292 21.859C1.75114 22.1154 1.59336 22.7243 1.84585 23.173C2.03515 23.4936 2.35069 23.6538 2.66623 23.6538C2.824 23.6538 2.98177 23.6218 3.13954 23.5256L7.11537 21.1858C7.55715 20.9293 7.71492 20.3205 7.46244 19.8717C7.17842 19.4231 6.61053 19.2628 6.13722 19.5192L6.13719 19.5192Z" fill="#007F5F"/>
<path d="M12.0062 23.782C11.5013 23.5897 10.9648 23.846 10.8071 24.359L9.22936 28.7179C9.04005 29.2307 9.29242 29.7757 9.79739 29.9359C9.89209 29.968 10.0182 30 10.1129 30C10.4915 30 10.8703 29.7435 10.9965 29.359L12.5742 25C12.7635 24.4871 12.511 23.9422 12.0062 23.782Z" fill="#007F5F"/>
<path d="M19.2006 24.3589C19.0113 23.8462 18.4748 23.5897 18.0015 23.782C17.4966 23.9743 17.2441 24.5192 17.4334 25L19.0112 29.3589C19.1374 29.7435 19.516 30 19.8947 30C19.9894 30 20.1156 29.9679 20.2103 29.9359C20.7151 29.7436 20.9676 29.1987 20.7783 28.7179L19.2006 24.3589Z" fill="#007F5F"/>
<path d="M27.8148 21.8589L23.839 19.5191C23.3972 19.2627 22.7977 19.4229 22.5453 19.8717C22.2928 20.3204 22.4506 20.9294 22.8924 21.1857L26.8682 23.5255C27.026 23.6217 27.1837 23.6538 27.3415 23.6538C27.6571 23.6538 27.9726 23.4935 28.1619 23.173C28.4459 22.6922 28.2881 22.1152 27.8148 21.8589Z" fill="#007F5F"/>
<path d="M29.9921 12.7564C29.8974 12.2436 29.424 11.891 28.8877 11.9871L24.3754 12.7884C23.8706 12.8846 23.5235 13.3654 23.6181 13.9102C23.7128 14.391 24.0914 14.7115 24.5332 14.7115H24.691L29.2032 13.8782C29.7396 13.782 30.0551 13.2692 29.9921 12.7564Z" fill="#007F5F"/>
<path d="M24.7856 3.58969C24.3753 3.23715 23.7759 3.3012 23.4604 3.71791L20.5258 7.2756C20.1788 7.69232 20.2418 8.30118 20.6521 8.62169C20.8414 8.78195 21.0307 8.84601 21.2516 8.84601C21.5356 8.84601 21.788 8.71778 21.9774 8.49347L24.912 4.93579C25.2274 4.55123 25.1642 3.94223 24.7856 3.58969L24.7856 3.58969Z" fill="#007F5F"/>
</svg>
