<svg width="30" height="30" viewBox="0 0 30 30" fill="none" xmlns="http://www.w3.org/2000/svg">
<path d="M30 14.514H21.712L24.7244 6.08269L30 14.514ZM20.1254 15.6562L15 30L9.87463 15.6562H20.1254ZM9.94031 14.514L15 6.42749L20.0597 14.514H9.94031ZM16.0149 5.94714H23.5949L20.8392 13.6571L16.0149 5.94714ZM9.16069 13.6571L6.40503 5.94714H13.985L9.16069 13.6571ZM13.6078 29.3994L0.31809 15.6559H8.69681L13.6078 29.3994ZM21.3032 15.6559H29.6819L16.3922 29.4L21.3032 15.6559ZM5.27558 6.08239L8.28801 14.5137H0L5.27558 6.08239Z" fill="#007F5F"/>
<path d="M20.5221 0.789307C20.683 1.01335 20.8749 1.21181 21.0915 1.37816C20.8749 1.54449 20.683 1.74297 20.5221 1.967C20.3613 1.74296 20.1694 1.5445 19.9528 1.37816C20.1694 1.21182 20.3613 1.01334 20.5221 0.789307Z" fill="#007F5F"/>
<path d="M28.2533 2.75613C27.9249 2.19094 27.4673 1.71775 26.9208 1.37806C27.4673 1.03837 27.9249 0.565151 28.2533 0C28.5818 0.565182 29.0394 1.03837 29.5858 1.37806C29.0393 1.71775 28.5818 2.19097 28.2533 2.75613Z" fill="#007F5F"/>
</svg>
