<svg width="24" height="30" viewBox="0 0 24 30" fill="none" xmlns="http://www.w3.org/2000/svg">
<path d="M17.1429 3.75V0H1.60714C1.18103 0.000446429 0.772543 0.169977 0.471314 0.471314C0.169972 0.772543 0.000457143 1.18103 0 1.60714V28.3929C0.000446429 28.819 0.169977 29.2275 0.471314 29.5287C0.772543 29.83 1.18103 29.9995 1.60714 30H21.9643C22.3904 29.9996 22.7989 29.83 23.1001 29.5287C23.4015 29.2275 23.571 28.819 23.5714 28.3929V6.42857H19.8214C19.1113 6.42779 18.4305 6.14531 17.9282 5.6432C17.4261 5.14097 17.1436 4.46017 17.1429 3.75ZM7.5 16.6071C7.07377 16.6071 6.66494 16.4378 6.36363 16.1364C6.06217 15.835 5.89286 15.4262 5.89286 15C5.89286 14.5738 6.06217 14.1649 6.36363 13.8636C6.66497 13.5622 7.07377 13.3929 7.5 13.3929C7.92623 13.3929 8.33506 13.5622 8.63637 13.8636C8.93783 14.165 9.10714 14.5738 9.10714 15C9.1067 15.4261 8.93717 15.8346 8.63583 16.1358C8.3346 16.4372 7.92611 16.6067 7.5 16.6071ZM11.7857 16.6071C11.3595 16.6071 10.9507 16.4378 10.6493 16.1364C10.3479 15.835 10.1786 15.4262 10.1786 15C10.1786 14.5738 10.3479 14.1649 10.6493 13.8636C10.9507 13.5622 11.3595 13.3929 11.7857 13.3929C12.2119 13.3929 12.6208 13.5622 12.9221 13.8636C13.2235 14.165 13.3929 14.5738 13.3929 15C13.3924 15.4261 13.2229 15.8346 12.9215 16.1358C12.6203 16.4372 12.2118 16.6067 11.7857 16.6071ZM16.0714 16.6071C15.6452 16.6071 15.2364 16.4378 14.9351 16.1364C14.6336 15.835 14.4643 15.4262 14.4643 15C14.4643 14.5738 14.6336 14.1649 14.9351 13.8636C15.2364 13.5622 15.6452 13.3929 16.0714 13.3929C16.4977 13.3929 16.9065 13.5622 17.2078 13.8636C17.5093 14.165 17.6786 14.5738 17.6786 15C17.6781 15.4261 17.5086 15.8346 17.2073 16.1358C16.906 16.4372 16.4975 16.6067 16.0714 16.6071ZM12.3214 15C12.3214 15.1421 12.265 15.2783 12.1645 15.3788C12.0641 15.4792 11.9278 15.5357 11.7857 15.5357C11.6436 15.5357 11.5074 15.4792 11.4069 15.3788C11.3065 15.2784 11.25 15.1421 11.25 15C11.25 14.8579 11.3065 14.7217 11.4069 14.6212C11.5074 14.5208 11.6436 14.4643 11.7857 14.4643C11.9278 14.4644 12.0639 14.521 12.1644 14.6213C12.2647 14.7218 12.3213 14.8579 12.3214 15ZM16.6071 15C16.6071 15.1421 16.5507 15.2783 16.4502 15.3788C16.3498 15.4792 16.2135 15.5357 16.0714 15.5357C15.9293 15.5357 15.7931 15.4792 15.6926 15.3788C15.5922 15.2784 15.5357 15.1421 15.5357 15C15.5357 14.8579 15.5922 14.7217 15.6926 14.6212C15.7931 14.5208 15.9293 14.4643 16.0714 14.4643C16.2135 14.4644 16.3497 14.521 16.4501 14.6213C16.5504 14.7218 16.607 14.8579 16.6071 15ZM18.2143 3.75V0.757714L22.8137 5.35714H19.8214C19.3953 5.3567 18.9868 5.18717 18.6856 4.88583C18.3843 4.5846 18.2147 4.17611 18.2143 3.75ZM8.03571 15C8.03571 15.1421 7.97924 15.2783 7.8788 15.3788C7.77835 15.4792 7.64207 15.5357 7.49999 15.5357C7.35791 15.5357 7.22165 15.4792 7.12119 15.3788C7.02075 15.2784 6.96427 15.1421 6.96427 15C6.96427 14.8579 7.02075 14.7217 7.12119 14.6212C7.22164 14.5208 7.35791 14.4643 7.49999 14.4643C7.64207 14.4644 7.77823 14.521 7.87868 14.6213C7.97901 14.7218 8.0356 14.8579 8.03571 15Z" fill="#007F5F"/>
</svg>
