<svg width="30" height="30" viewBox="0 0 30 30" fill="none" xmlns="http://www.w3.org/2000/svg">
<path d="M15.5529 7.75023H22.2237C22.075 8.25315 21.7638 8.69404 21.3376 9.00523C20.6221 9.50825 19.7661 9.77856 18.8883 9.77856C18.0105 9.77856 17.1545 9.50827 16.439 9.00523C16.0128 8.69404 15.7016 8.25318 15.5529 7.75023ZM23.9013 15.8963H16.8828V19.8296L23.9013 19.8295V15.8963ZM20.7879 0H15.4894V6.78274H22.1805L20.7879 0ZM29.8273 6.78274L27.0423 0H21.7817L23.1742 6.78274H29.8273ZM24.2151 9.00539C24.9307 9.50842 25.7868 9.77872 26.6647 9.77872C27.5426 9.77872 28.3986 9.50843 29.1142 9.00539C29.5404 8.69431 29.8515 8.25334 30 7.7504H23.3292C23.478 8.25331 23.7892 8.69409 24.2152 9.00539H24.2151ZM8.66231 9.00539C9.37035 9.52298 10.2314 9.79478 11.1116 9.77872C11.9919 9.79467 12.853 9.52287 13.5613 9.00539C13.9872 8.69409 14.2983 8.25323 14.447 7.7504H7.7762C7.92492 8.25331 8.23614 8.6942 8.66231 9.00539ZM0.88583 9.00539C1.25859 9.28698 1.68271 9.49475 2.1351 9.61736C2.15539 9.62159 2.17535 9.62713 2.19498 9.63375C2.5671 9.73086 2.95039 9.77969 3.33511 9.77871C4.21544 9.79488 5.07658 9.52297 5.78485 9.00538C6.21082 8.69419 6.52196 8.25333 6.67056 7.75039H0C0.148497 8.2533 0.459637 8.69429 0.88583 9.00539ZM14.1612 9.76678C14.4896 9.51646 14.7732 9.21317 15 8.86976C15.2268 9.21317 15.5105 9.51645 15.8389 9.76678C16.7248 10.4046 17.7924 10.7481 18.888 10.7481C19.9836 10.7481 21.051 10.4046 21.937 9.76678C22.2655 9.51689 22.5491 9.21425 22.776 8.8714C23.0029 9.21428 23.2865 9.51689 23.6149 9.76678C24.4942 10.4175 25.5663 10.7627 26.6642 10.7484C26.9354 10.7484 27.2062 10.7285 27.4745 10.6888V27.2934H13.2604V15.2912C13.2604 15.1629 13.2089 15.0397 13.1172 14.949C13.0254 14.8582 12.9011 14.8072 12.7713 14.8072H4.95329C4.82355 14.8072 4.69907 14.8582 4.6074 14.949C4.5156 15.0397 4.46405 15.1629 4.46405 15.2912V27.2934H2.52485V10.6871C2.7931 10.7269 3.06388 10.7469 3.33509 10.7468C4.43292 10.7615 5.50494 10.417 6.38442 9.76686C6.71277 9.51697 6.99639 9.21434 7.2233 8.87148C7.45021 9.21437 7.73383 9.51698 8.06218 9.76686C8.94152 10.4176 10.0136 10.7627 11.1115 10.7485C12.2095 10.7627 13.2816 10.4176 14.1608 9.76686L14.1612 9.76678ZM15.9047 20.3148H15.9046C15.9046 20.443 15.9562 20.5662 16.0478 20.6569C16.1395 20.7476 16.2638 20.7987 16.3935 20.7988H24.3901C24.5199 20.7988 24.6442 20.7478 24.736 20.657C24.8277 20.5663 24.8792 20.4431 24.8792 20.3148V15.4148C24.8792 15.2864 24.8277 15.1633 24.736 15.0725C24.6442 14.9818 24.5198 14.9308 24.3901 14.9308H16.3935C16.2638 14.9309 16.1395 14.9819 16.0478 15.0727C15.9562 15.1634 15.9046 15.2864 15.9046 15.4148L15.9047 20.3148ZM0.300674 30H29.699V28.261H0.300674V30ZM8.21809 0.00016668H2.95778L0.172788 6.78291H6.82566L8.21809 0.00016668ZM12.2821 27.2933V15.7751H5.44278L5.44289 27.2933H12.2821ZM14.5107 6.78291V0.00016668H9.21223L7.81983 6.78291H14.5107Z" fill="#007F5F"/>
</svg>
