<svg width="30" height="30" viewBox="0 0 30 30" fill="none" xmlns="http://www.w3.org/2000/svg">
<path fill-rule="evenodd" clip-rule="evenodd" d="M14.9999 18.2144C14.9999 16.4391 13.5609 15.0001 11.7856 15.0001H3.21435C1.44012 15.0001 0 16.4391 0 18.2144V26.7857C0 28.561 1.44012 30 3.21435 30H11.7856C13.5609 30 14.9999 28.561 14.9999 26.7857V18.2144ZM30 18.2144C30 16.4391 28.561 15.0001 26.7857 15.0001H18.2144C16.4402 15.0001 15.0003 16.4391 15.0003 18.2144V26.7857C15.0003 28.561 16.4402 30 18.2144 30H26.7857C28.561 30 30 28.561 30 26.7857V18.2144ZM23.5716 18.2144H21.4287C20.8382 18.2144 20.3572 18.6944 20.3572 19.2859C20.3572 19.8774 20.8382 20.3572 21.4287 20.3572H23.5716C24.163 20.3572 24.6429 19.8773 24.6429 19.2859C24.6429 18.6943 24.163 18.2144 23.5716 18.2144ZM8.5715 18.2144H6.42865C5.83835 18.2144 5.35734 18.6944 5.35734 19.2859C5.35734 19.8774 5.83835 20.3572 6.42865 20.3572H8.5715C9.16311 20.3572 9.64299 19.8773 9.64299 19.2859C9.64299 18.6943 9.16306 18.2144 8.5715 18.2144ZM24.643 3.21435C24.643 1.43905 23.2041 0 21.4288 0H12.8572C11.0829 0 9.64299 1.43905 9.64299 3.21435V11.7856C9.64299 13.5609 11.0829 14.9997 12.8572 14.9997H21.4288C23.2041 14.9997 24.643 13.5609 24.643 11.7856V3.21435ZM18.2146 3.21435H16.0717C15.4814 3.21435 15.0004 3.69428 15.0004 4.28565C15.0004 4.87703 15.4814 5.35715 16.0717 5.35715H18.2146C18.806 5.35715 19.2861 4.87703 19.2861 4.28565C19.2861 3.69428 18.806 3.21435 18.2146 3.21435Z" fill="#007F5F"/>
</svg>
