<svg width="32" height="32" viewBox="0 0 32 32" fill="none" xmlns="http://www.w3.org/2000/svg">
<path d="M29.824 19.3344C29.9846 19.3675 30.1235 19.433 30.2406 19.5306C30.3951 19.6597 30.4645 19.8147 30.4487 19.9957H30.4486C30.4384 20.1252 30.3847 20.2474 30.2964 20.3427C30.2045 20.4442 30.0873 20.5085 29.9448 20.5356C29.8007 20.5633 29.6053 20.5872 29.3588 20.6075C29.1526 20.6245 28.5366 20.6864 27.5107 20.793V20.7931C27.4981 20.7943 27.4873 20.8023 27.4824 20.814C27.3305 21.179 27.1111 21.5121 26.8355 21.7956C26.2059 22.4451 25.4452 22.7254 24.5537 22.6366C24.5192 22.6331 24.4844 22.6404 24.4542 22.6575C23.9826 22.9235 23.4952 23.0469 22.9919 23.0281C22.7216 23.0182 22.4548 22.9626 22.1917 22.8615C21.6314 22.6463 21.1821 22.2757 20.8441 21.7495C20.6635 21.4679 20.5386 21.1509 20.4695 20.7984H20.4694C20.4662 20.783 20.4523 20.772 20.4365 20.7725L19.8559 20.782V20.7819C19.8284 20.7819 19.8023 20.7947 19.7855 20.8165C19.5509 21.1334 19.2396 21.2971 18.8517 21.3075C17.4231 21.3462 15.9941 21.377 14.565 21.4C13.4782 21.4178 12.3986 21.4447 11.3258 21.4807H11.3257C11.3097 21.4814 11.2953 21.4909 11.2883 21.5053C11.0591 21.9791 10.7255 22.3012 10.2874 22.4717C10.0473 22.5651 9.81018 22.5975 9.57634 22.5688C9.32936 22.5386 9.09906 22.4482 8.88551 22.2974V22.2973C8.63145 22.1191 8.42394 21.8822 8.28061 21.6069C8.27061 21.5879 8.25144 21.5755 8.23009 21.574C8.09301 21.5641 7.98103 21.5358 7.89404 21.4893C7.85737 21.4695 7.81153 21.4831 7.79164 21.5197C7.57039 21.9284 7.29393 22.2479 6.96217 22.4782C6.73842 22.6334 6.48916 22.7433 6.21415 22.808C5.67404 22.935 5.15759 22.856 4.66468 22.5711C4.02593 22.2022 3.62385 21.6425 3.45855 20.8921L3.45865 20.8922C3.45584 20.8804 3.44594 20.8717 3.43396 20.8704C3.28209 20.8561 3.12916 20.8601 2.97834 20.8823C2.96542 20.8843 2.95365 20.891 2.94542 20.9012C2.86292 21.0061 2.7598 21.093 2.6423 21.1566C2.52772 21.2195 2.39928 21.2531 2.26854 21.2545C2.03083 21.2561 1.84001 21.1528 1.69614 20.9444C1.64187 20.8657 1.60187 20.7744 1.57604 20.6705C1.55739 20.5967 1.54833 20.499 1.54885 20.3773C1.5501 19.5147 1.69843 18.6585 1.98728 17.8457C2.07551 17.5965 2.1553 17.3946 2.22665 17.24C2.31811 17.0418 2.42561 16.8514 2.54823 16.6709C2.72427 16.4107 2.95593 16.1877 3.24321 16.0018C3.2605 15.9906 3.27415 15.9743 3.28217 15.9554C3.83081 14.6621 4.57862 13.5152 5.52582 12.5143C6.19529 11.8067 6.94521 11.2296 7.77561 10.7831C7.98259 10.6717 8.23041 10.5549 8.51916 10.4327C10.2257 9.70929 11.9944 9.2422 13.8248 9.03169C14.2637 8.98128 14.7263 8.9619 15.2127 8.97367C16.0189 8.99315 16.7686 9.18805 17.4616 9.55847C18.0324 9.86357 18.5393 10.2679 18.9824 10.7716H18.9823C19.5686 11.4373 20.0917 12.1563 20.545 12.919C20.5493 12.9261 20.5571 12.9304 20.5655 12.9304C21.7148 12.9227 22.8638 12.9245 24.0127 12.9358C24.6991 12.9423 25.3331 12.9979 25.9146 13.1027C26.3915 13.1886 26.8542 13.3478 27.3025 13.5805C27.5116 13.6894 27.7437 13.8345 27.9987 14.0161H27.9986C28.3997 14.3016 28.7817 14.6128 29.1423 14.9479C29.1548 14.9597 29.1731 14.9627 29.1887 14.9557C29.4116 14.8563 29.6061 14.8889 29.7723 15.0537C29.8943 15.1746 29.9819 15.3317 30.0351 15.5249C30.1903 16.0921 30.115 16.6214 29.8094 17.1126H29.8093C29.8022 17.124 29.7983 17.137 29.7982 17.1504L29.8031 19.3098C29.8034 19.3218 29.812 19.332 29.8237 19.3344L29.824 19.3344ZM5.54641 17.7632C5.91046 17.8001 6.22931 17.8924 6.50286 18.0399C6.83099 18.217 7.07526 18.4713 7.23566 18.8027C7.30753 18.9516 7.38139 19.1708 7.45733 19.4602H7.45722C7.51618 19.6845 7.56087 19.9122 7.59087 20.1421C7.62243 20.385 7.64514 20.5291 7.6591 20.5743C7.73805 20.8284 7.88868 20.9987 8.11107 21.085C8.2068 21.122 8.35346 21.1392 8.55107 21.1364C10.991 21.1004 13.4311 21.0612 15.8708 21.0187C17.1817 20.996 18.1159 20.9775 18.6732 20.9632C18.8747 20.958 19.0252 20.9345 19.1248 20.8925C19.3411 20.8015 19.4988 20.6378 19.5981 20.4015L19.598 20.4016C19.6689 20.2335 19.721 20.0583 19.7534 19.8788C19.786 19.7009 19.8279 19.5248 19.8789 19.3512C20.0281 18.8449 20.291 18.4231 20.6677 18.0859C20.8565 17.9168 21.0859 17.7684 21.3557 17.641C22.0153 17.3287 22.7109 17.2132 23.4427 17.2944C23.7443 17.3278 24.0099 17.3916 24.2397 17.4856C24.7937 17.7126 25.2128 18.1073 25.4968 18.6696L25.4967 18.6695C25.6355 18.9438 25.737 19.2357 25.7981 19.5372C25.8173 19.6306 25.8389 19.7236 25.8627 19.816C25.9079 19.9904 25.9892 20.1399 26.1066 20.2647C26.1993 20.3633 26.3031 20.4294 26.4183 20.4629C26.531 20.4955 26.6578 20.5061 26.7991 20.4946C27.7654 20.4151 28.731 20.3265 29.6956 20.2289C29.8418 20.2141 29.9185 20.2056 29.9259 20.2034C30.0173 20.1782 30.075 20.1176 30.0991 20.0216C30.1147 19.9595 30.1047 19.9001 30.0691 19.8436C30.0427 19.802 29.9992 19.7665 29.9383 19.7376C29.8037 19.6734 29.6501 19.633 29.4774 19.6162L29.4772 19.6161C29.4598 19.6144 29.4422 19.6159 29.4253 19.6206C28.9643 19.7465 28.4973 19.8491 28.0259 19.9282C27.6558 19.9897 27.2848 20.0445 26.9127 20.0931C26.7244 20.1175 26.6138 20.1282 26.5812 20.1252C26.4488 20.1134 26.3508 20.0437 26.2872 19.9163C26.2332 19.8078 26.1875 19.6682 26.1502 19.4977C26.0986 19.2628 26.0651 19.1202 26.0495 19.07H26.0496C25.9821 18.8527 25.8948 18.6422 25.7888 18.4408C25.561 18.0131 25.2485 17.669 24.8513 17.4086C24.6292 17.2628 24.3819 17.1468 24.1094 17.0607C23.7622 16.9513 23.4001 16.8969 23.0362 16.8995C22.5693 16.9017 22.1272 16.9691 21.71 17.1018H21.7099C21.3807 17.2068 21.0683 17.3582 20.7818 17.5513C20.5439 17.7114 20.3376 17.891 20.1634 18.0901C19.8253 18.4761 19.5958 18.9275 19.4746 19.4446C19.4304 19.6327 19.3909 19.8216 19.3558 20.0113H19.3557C19.3397 20.0975 19.3135 20.1813 19.2775 20.2613C19.1781 20.4836 19.0053 20.5974 18.7594 20.6027C15.3261 20.6775 11.8922 20.7419 8.45833 20.7959C8.18665 20.8003 8.03166 20.6732 7.99324 20.4146C7.94605 20.0978 7.89574 19.8123 7.8423 19.5585C7.77292 19.2287 7.69449 18.9666 7.60709 18.7723C7.27656 18.0381 6.68261 17.5965 5.82533 17.4477C5.32522 17.3608 4.85282 17.3791 4.40784 17.5028C3.61669 17.7224 3.08544 18.2296 2.81429 19.0244C2.67117 19.4438 2.54472 19.8682 2.43472 20.2975H2.43482C2.41399 20.3795 2.37961 20.4574 2.33326 20.5282C2.29378 20.589 2.25784 20.5871 2.22555 20.5221V20.522C2.19992 20.4683 2.18576 20.41 2.18399 20.3505C2.16774 20.0073 2.18378 19.6632 2.2317 19.3229C2.32472 18.6562 2.51116 18.006 2.78556 17.3913C2.90504 17.123 3.00306 16.9427 3.07962 16.8506C3.21555 16.6864 3.39452 16.5715 3.61628 16.506C3.84743 16.438 4.01951 16.3907 4.13274 16.3641C5.10044 16.1388 6.07306 15.9366 7.05034 15.7576C9.47596 15.3129 11.9127 14.9405 14.3602 14.6403C14.5959 14.6112 14.8679 14.5775 15.176 14.5392C16.9136 14.3234 18.6552 14.1486 20.4011 14.0149C20.4068 14.0144 20.6558 13.995 21.1479 13.9569C22.4778 13.8541 23.8097 13.787 25.1436 13.7558L25.1437 13.7557C25.5319 13.7467 25.9201 13.7658 26.3054 13.8129C26.6755 13.8579 27.007 13.9681 27.3002 14.1435C27.614 14.3315 27.9409 14.5591 28.2805 14.8261C28.3515 14.8821 28.4535 14.9673 28.5864 15.082C28.7447 15.2182 28.8486 15.3012 28.8985 15.3311C28.9435 15.358 28.9589 15.3425 28.945 15.2847C28.934 15.2403 28.8791 15.1716 28.7805 15.0786H28.7806C28.462 14.7787 28.1225 14.5018 27.7649 14.2497C27.5127 14.0721 27.2781 13.9307 27.0612 13.8257C26.6528 13.6275 26.2329 13.4963 25.8016 13.4318C25.1497 13.3345 24.4335 13.2774 23.653 13.2607C22.6079 13.2382 21.5259 13.2304 20.4069 13.2373V13.2372C20.3726 13.2372 20.3409 13.2195 20.3229 13.1903C20.1458 12.9025 19.958 12.6086 19.7596 12.3087C19.4248 11.8033 19.0488 11.3264 18.6353 10.883C17.6964 9.87584 16.5314 9.35315 15.1406 9.31502C14.6049 9.30022 14.0849 9.32658 13.5804 9.39397C11.923 9.61554 10.3015 10.0523 8.75697 10.693C8.46635 10.8131 8.21729 10.927 8.00977 11.0348C7.55331 11.2716 7.14163 11.5368 6.77486 11.8304C5.40955 12.9238 4.37153 14.2877 3.66073 15.9224C3.65989 15.9243 3.64239 15.9788 3.60812 16.0857H3.60802C3.5826 16.1706 3.52583 16.2425 3.44927 16.2872C3.23406 16.4158 3.05407 16.5683 2.90937 16.7445C2.73854 16.9531 2.58084 17.2351 2.43604 17.5904V17.5903C2.11343 18.3809 1.92593 19.2199 1.88124 20.0725C1.87197 20.2419 1.87457 20.3928 1.88905 20.5252C1.90218 20.6467 1.95249 20.7465 2.03999 20.8246C2.08781 20.8688 2.14739 20.8982 2.21155 20.9089C2.27916 20.9202 2.34853 20.911 2.41093 20.8827C2.50749 20.8401 2.58926 20.7699 2.64624 20.6811C2.67781 20.632 2.71343 20.5387 2.75312 20.4011C2.86062 20.0296 2.97499 19.6604 3.09645 19.2933C3.15062 19.1293 3.21635 18.9695 3.29301 18.8149C3.38551 18.6267 3.50926 18.4555 3.65907 18.3087C3.79646 18.1743 3.96749 18.0623 4.17229 17.9726C4.60323 17.7839 5.06115 17.714 5.54616 17.7631L5.54641 17.7632ZM27.6552 16.8188C27.9572 16.8124 28.1926 16.3591 28.181 15.8062C28.1695 15.2533 27.9152 14.8102 27.6132 14.8166C27.3113 14.823 27.0758 15.2763 27.0874 15.8291C27.099 16.382 27.3532 16.8252 27.6552 16.8188ZM29.4185 16.8651C29.6265 16.8593 29.785 16.4926 29.7725 16.0461C29.76 15.5995 29.5813 15.2422 29.3734 15.248C29.1655 15.2539 29.007 15.6206 29.0195 16.0671C29.032 16.5137 29.2106 16.8709 29.4185 16.8651ZM24.2631 15.8452C23.1005 15.6235 21.9161 15.537 20.7335 15.5879C20.4709 15.5988 20.2097 15.6325 19.9529 15.6886C19.648 15.7552 19.4063 15.8492 19.2275 15.9707C18.8981 16.1949 18.684 16.5199 18.5857 16.9456C18.541 17.1389 18.5134 17.3356 18.5034 17.5337C18.4858 17.8742 18.4999 18.2156 18.5458 18.5536C18.5485 18.5734 18.5536 18.5778 18.561 18.5671C18.5634 18.5635 18.5646 18.5592 18.5646 18.5547C18.5764 18.2554 18.6166 17.9416 18.6851 17.6135C18.7314 17.3884 18.8025 17.169 18.8973 16.9596C18.9998 16.7345 19.117 16.5594 19.2489 16.4341C19.4063 16.2844 19.5955 16.1775 19.8164 16.1134H19.8165C20.0647 16.0411 20.3209 15.9995 20.5793 15.9896C21.8091 15.9416 23.0364 15.9014 24.2609 15.8687C24.3332 15.8667 24.3339 15.8589 24.2629 15.8452L24.2631 15.8452ZM20.622 19.2196C20.5889 19.2975 20.5594 19.377 20.5336 19.4582C20.5314 19.4654 20.5309 19.473 20.5319 19.4804C20.539 19.5328 20.5498 19.528 20.5644 19.466C20.5844 19.3825 20.6094 19.3002 20.6393 19.2196C20.8592 18.6741 21.2224 18.2524 21.7291 17.9543H21.729C21.7356 17.9513 21.741 17.946 21.7442 17.9395C21.7491 17.9256 21.7434 17.9231 21.7269 17.9322C21.1978 18.2227 20.8295 18.6518 20.622 19.2196ZM3.59721 19.5075L3.53554 19.6843C3.53377 19.6896 3.53491 19.6956 3.53846 19.7C3.54335 19.7065 3.54762 19.7038 3.55117 19.6917C3.57012 19.6295 3.59117 19.5681 3.6145 19.5075L3.6146 19.5076C3.67877 19.3424 3.76221 19.1854 3.86304 19.0396C4.01314 18.8238 4.20189 18.6378 4.4296 18.4815C4.43397 18.4787 4.437 18.4742 4.43825 18.4692C4.4396 18.4602 4.4347 18.4592 4.42345 18.4663C4.02783 18.7168 3.75241 19.0639 3.59721 19.5075ZM23.378 21.6823C24.1831 21.5388 24.7182 20.7617 24.5729 19.9465C24.4277 19.1313 23.6573 18.5867 22.8521 18.7302C22.0469 18.8736 21.5119 19.6507 21.6572 20.4659C21.8024 21.2811 22.5728 21.8257 23.378 21.6823ZM5.83987 21.6657C6.53571 21.6085 7.05155 20.9758 6.99206 20.2527C6.93268 19.5295 6.32038 18.9897 5.62467 19.0468C4.92883 19.104 4.41291 19.7366 4.47238 20.4599C4.53186 21.1831 5.14406 21.7229 5.83987 21.6657Z" fill="black"/>
<path d="M17.0301 12.6734C16.8653 12.5218 16.7318 12.3844 16.6295 12.2613C16.2084 11.7547 15.8295 11.2394 15.4929 10.7151C15.4529 10.6523 15.4244 10.5772 15.4078 10.4898C15.3856 10.3741 15.4314 10.3046 15.5452 10.2813C15.6286 10.264 15.7137 10.2559 15.7989 10.2571C16.4138 10.2666 16.9621 10.3379 17.4438 10.4709C17.8983 10.5964 18.2838 10.8592 18.6002 11.2592C19.109 11.9021 19.6096 12.5514 20.1019 13.2072C20.1102 13.2181 20.1074 13.2235 20.0937 13.2232C19.3414 13.2116 18.7939 13.2092 18.4513 13.2158C17.9076 13.2265 17.4339 13.0457 17.03 12.6734L17.0301 12.6734Z" fill="black"/>
<path d="M10.3567 14.4429C10.2326 14.3436 10.1442 14.2241 10.0919 14.0844C10.0588 13.9961 10.0415 13.8536 10.0401 13.6571C10.0349 12.9975 10.0319 12.3379 10.0314 11.6782C10.0314 11.6747 10.0296 11.617 10.0261 11.5051C10.0145 11.1488 10.1438 10.9002 10.4139 10.7596C10.5225 10.7031 10.7266 10.6569 11.0262 10.621C11.6302 10.5484 12.2342 10.4755 12.8385 10.4023C13.2494 10.3524 13.6203 10.4396 13.9509 10.6639C14.2116 10.8407 14.4507 11.0607 14.6681 11.3239C14.9982 11.7239 15.3623 12.2132 15.7603 12.7919C15.8814 12.9679 15.9676 13.1082 16.0185 13.213C16.1126 13.4061 16.1071 13.5844 16.0021 13.748C15.9184 13.8779 15.789 13.9679 15.6138 14.0178C15.5179 14.045 15.2579 14.0858 14.8337 14.1403C13.5589 14.3043 12.2837 14.4657 11.0081 14.6247C10.7639 14.6551 10.5468 14.5945 10.3568 14.4429L10.3567 14.4429Z" fill="black"/>
<path d="M5.34507 15.3814C5.21216 15.2388 5.17726 15.0516 5.24059 14.8196C5.38705 14.2829 5.62131 13.8094 5.94339 13.3993C6.07912 13.2266 6.26547 13.0255 6.50267 12.7961C7.06329 12.2536 7.70758 11.7964 8.43539 11.4246C8.53696 11.3717 8.64144 11.3247 8.74841 11.2839C8.87122 11.2379 8.98195 11.2148 9.0807 11.2148C9.30247 11.2145 9.46113 11.3129 9.55654 11.5098C9.59196 11.583 9.61039 11.6817 9.61206 11.8062C9.62081 12.4713 9.62414 13.1365 9.62196 13.8018C9.6206 14.1766 9.61154 14.3951 9.59477 14.4574C9.54893 14.6284 9.44862 14.7614 9.29373 14.8562C9.20404 14.9108 9.05279 14.9572 8.83978 14.9956C7.86957 15.1694 6.89946 15.3437 5.92965 15.5187C5.81371 15.5395 5.70819 15.5417 5.61298 15.5253H5.61288C5.51017 15.5085 5.4159 15.4578 5.34517 15.3814L5.34507 15.3814Z" fill="black"/>
</svg>
