<svg width="158" height="60" viewBox="0 0 158 60" fill="none" xmlns="http://www.w3.org/2000/svg">
<g clip-path="url(#clip0_241_10924)">
<path d="M7.31733 14.9902C7.23501 13.5614 7.5784 12.1401 8.30483 10.9029C9.02974 9.64168 9.95692 8.5056 11.0501 7.53911C12.1713 6.54668 13.4077 5.68994 14.7335 4.98695C15.9469 4.32349 17.2279 3.78921 18.5551 3.39308C19.9119 3.00472 21.3047 2.75247 22.7125 2.64015C24.3568 2.48223 26.0142 2.51834 27.65 2.74771C29.2191 2.9622 30.7411 3.43481 32.153 4.14601C33.4958 4.79227 34.5507 5.90645 35.1155 7.27509C35.2132 7.45902 35.2643 7.66373 35.2643 7.87157C35.2643 8.07941 35.2132 8.28412 35.1155 8.46805C34.8831 8.86647 34.5103 9.16591 34.0687 9.30899C32.9831 9.68849 32.0856 10.4653 31.5605 11.4798C30.7801 13.0155 30.1358 14.6154 29.6348 16.2614C31.9653 16.0789 34.2037 15.8474 36.3498 15.5671C38.4828 15.2933 40.5862 14.9902 42.6501 14.5893C43.2203 14.4637 43.8143 14.4941 44.3683 14.6773C44.5531 14.7274 44.7222 14.8226 44.8602 14.9541C44.9982 15.0856 45.1007 15.2493 45.1583 15.4302C45.1812 15.6303 45.1614 15.833 45.1002 16.025C45.0389 16.217 44.9376 16.3942 44.8028 16.545C44.4199 17.0389 43.9172 17.4291 43.3413 17.6793C40.8056 18.6749 38.202 19.4918 35.55 20.1239L27.7487 21.8937C26.9291 24.2894 26.0206 26.6167 25.0035 28.8755C23.9933 31.1427 22.763 33.3074 21.33 35.339C20.5919 36.3914 19.7802 37.3913 18.9007 38.3312C17.9962 39.3073 17.0047 40.2008 15.9382 41.0006C14.9086 41.7954 13.7761 42.4498 12.5708 42.9465C11.3642 43.4309 10.0802 43.6991 8.77883 43.7386C7.01863 43.7835 5.28957 43.2733 3.84133 42.2816C2.36479 41.3007 1.23286 39.8894 0.602328 38.2432C0.133013 37.0246 -0.0722213 35.722 -4.7496e-05 34.4198C0.0761623 33.1475 0.349263 31.8943 0.809703 30.704C1.29111 29.4936 1.92838 28.3499 2.7057 27.3012C3.46087 26.2621 4.32116 25.3021 5.2732 24.4361C7.48659 22.4233 10.0492 20.8232 12.8375 19.7132C15.5461 18.6572 18.341 17.8328 21.1917 17.249C21.8533 15.9387 22.5643 14.6089 23.3247 13.279C24.0711 11.9575 24.9619 10.7213 25.9811 9.59256C24.4603 9.78813 22.8902 10.0619 21.2806 10.4042C19.7155 10.7384 18.1749 11.1761 16.669 11.7145C15.2975 12.2004 13.975 12.8126 12.719 13.543C11.605 14.1666 10.6038 14.9696 9.75645 15.9192C9.58088 16.1222 9.34473 16.2647 9.08205 16.3262C8.81938 16.3877 8.54376 16.365 8.29495 16.2614C8.01153 16.189 7.76096 16.0242 7.58362 15.7936C7.40628 15.563 7.31248 15.28 7.31733 14.9902ZM11.9882 28.6115C11.5116 28.9971 11.0628 29.4153 10.6452 29.8631C10.0554 30.4702 9.51703 31.1243 9.03558 31.8188C8.58131 32.4499 8.21896 33.1411 7.9592 33.8722C7.83003 34.1382 7.79388 34.4392 7.85646 34.7277C7.91903 35.0163 8.07677 35.2761 8.30483 35.4661C8.57304 35.7022 8.91361 35.8421 9.27181 35.8634C9.63001 35.8846 9.98504 35.7861 10.2798 35.5834C11.1171 35.0988 11.8761 34.4923 12.5313 33.7842C13.2505 33.0333 13.9107 32.2291 14.5063 31.3787C15.089 30.5476 15.4938 29.9609 15.6716 29.6089C16.1456 28.8364 16.5702 28.0541 16.9553 27.2621C17.3405 26.47 17.7157 25.6682 18.0712 24.8566C16.9356 25.4042 15.8592 25.9713 14.8223 26.5678C13.8173 27.163 12.8687 27.847 11.9882 28.6115Z" fill="#2B2D42"/>
<path d="M70.8432 14.4623C71.2367 14.3477 71.6579 14.3684 72.0381 14.521C72.1709 14.584 72.2888 14.674 72.3841 14.7852C72.4794 14.8964 72.5499 15.0263 72.5911 15.1663C72.6656 15.4704 72.6234 15.791 72.4726 16.066C72.2949 16.421 72.0125 16.7143 71.6628 16.9069C69.5097 18.2427 67.2311 19.3692 64.8589 20.2706C62.6368 21.1214 60.3137 21.6866 57.9464 21.9525C57.788 23.6193 57.4266 25.2609 56.8701 26.8417C56.3331 28.3314 55.7133 29.7907 55.0136 31.2126C54.4519 32.3714 53.8187 33.4948 53.1176 34.5764C52.3995 35.6965 51.6112 36.771 50.7574 37.7935C49.9063 38.8105 48.968 39.7527 47.9529 40.6096C46.9679 41.4398 45.867 42.1249 44.6843 42.6435C42.9708 43.4303 41.0619 43.7023 39.1938 43.4258C37.459 43.1574 35.8214 42.4576 34.4341 41.3919C33.0353 40.3052 31.9323 38.8903 31.2247 37.2752C30.4604 35.5766 30.1869 33.7013 30.4347 31.858C30.7659 28.9121 31.6147 26.0463 32.9429 23.3899C34.2489 20.7051 35.9865 18.2481 38.0878 16.1148C39.063 15.1041 40.1271 14.1813 41.2676 13.3574C42.3997 12.5312 43.6471 11.8724 44.9707 11.4017C45.4369 11.2264 45.92 11.0986 46.4124 11.0203C46.9637 10.922 47.5215 10.8632 48.0813 10.8443C48.6286 10.8233 49.1762 10.8726 49.7107 10.991C50.2193 11.0958 50.7045 11.2912 51.1426 11.5679C52.211 11.6508 53.2358 12.0229 54.1051 12.6435C55.0377 13.2771 55.8473 14.0721 56.4948 14.9903C58.9244 15.4758 61.4069 15.6499 63.8813 15.5086C66.2257 15.3376 68.5532 14.9878 70.8432 14.4623ZM41.2182 25.7759C40.3309 27.2186 39.6057 28.7532 39.0556 30.3521C38.575 31.6844 38.2439 33.0649 38.0681 34.4688C37.9767 34.8805 37.9689 35.306 38.0452 35.7207C38.1215 36.1353 38.2803 36.5308 38.5124 36.8841C38.9272 37.3241 39.6678 37.1383 40.7639 36.3267C42.569 34.9297 44.162 33.2832 45.4941 31.4375C46.2386 30.4669 46.9213 29.4512 47.5382 28.3965C48.156 27.3426 48.7004 26.2481 49.1676 25.1207C49.3651 24.5731 49.5626 24.006 49.7502 23.4095C49.9555 22.7733 50.0945 22.118 50.1649 21.4538C49.5697 21.2569 49.0073 20.9735 48.4961 20.6129C47.9153 20.1879 47.4112 19.6688 47.0049 19.0777C45.8212 19.9885 44.7446 21.0283 43.7956 22.1774C42.835 23.3115 41.9603 24.5142 41.1787 25.7759H41.2182Z" fill="#2B2D42"/>
<path d="M70.0236 23.918L71.8899 21.5125C72.5154 20.7172 73.1737 19.935 73.8649 19.1657C74.6484 18.2335 75.5733 17.1807 76.6398 16.0073C77.6711 14.8586 78.8268 13.8256 80.0862 12.9271C81.2389 12.0905 82.548 11.4889 83.9374 11.1573C85.3532 10.8639 86.8283 11.0934 88.0849 11.8026C88.8505 12.1807 89.5114 12.7379 90.0106 13.4258C90.4823 14.0772 90.818 14.8152 90.9981 15.5966C91.1679 16.397 91.2046 17.2194 91.1067 18.0314C90.9941 18.8579 90.7956 19.6705 90.5142 20.4565C89.679 22.8748 88.5305 25.1756 87.0974 27.3013C85.6754 29.4135 84.2929 31.4865 82.9302 33.5399C82.4219 34.2232 82.0345 34.987 81.7847 35.7987C81.6859 36.2974 81.7847 36.6006 82.0513 36.6983C82.5012 36.763 82.9593 36.6584 83.3351 36.405C84.0514 36.0407 84.7155 35.5836 85.3101 35.0458C86.0888 34.3888 86.8212 33.6798 87.5023 32.9239C88.1607 32.1677 88.8519 31.4441 89.5761 30.7531C90.3562 29.9415 91.1264 29.1201 91.9066 28.289C92.6867 27.4578 93.4668 26.5973 94.2469 25.7075C94.516 25.3756 94.8813 25.1333 95.2937 25.0132C95.4403 24.9704 95.5943 24.9588 95.7458 24.979C95.8972 24.9992 96.0426 25.0509 96.1726 25.1305C96.4177 25.3016 96.5845 25.5617 96.6367 25.8541C96.7096 26.2222 96.6465 26.6039 96.4589 26.9298C96.1528 27.5067 95.7183 28.2009 95.1752 29.0125C94.6321 29.8242 94.0593 30.6455 93.4569 31.4767C92.8546 32.3078 92.2028 33.1683 91.6004 33.8919L90.1093 35.8476C89.4082 36.8255 88.6182 37.8033 87.7393 38.7811C86.8989 39.8165 85.9301 40.743 84.8558 41.5386C83.8389 42.2909 82.6907 42.8511 81.4687 43.1912C80.2016 43.5195 78.859 43.4055 77.6668 42.8685C76.6384 42.4899 75.7336 41.8408 75.0499 40.991C74.4538 40.209 74.0361 39.3082 73.8254 38.3509C73.6122 37.3506 73.5821 36.3206 73.7366 35.3098C73.8895 34.2708 74.1441 33.2491 74.4969 32.259C74.9929 30.961 75.6077 29.7107 76.3337 28.5236C77.0546 27.3404 77.8051 26.1964 78.5852 25.1012C79.3653 24.006 80.1652 22.9206 80.9749 21.8548C81.8033 20.7794 82.5715 19.6597 83.2758 18.5008C83.7004 17.7968 83.8486 17.3665 83.7103 17.1905C83.5721 17.0145 83.2462 17.0536 82.7228 17.3079C82.0031 17.6829 81.3189 18.1215 80.6787 18.6182C79.8393 19.2342 78.9012 20.0067 77.8446 20.9356C76.6524 21.9628 75.5399 23.0775 74.5167 24.27C73.5292 25.4434 72.5417 26.656 71.4851 27.888L69.0558 30.8802C68.2559 31.8581 67.5252 32.8359 66.8438 33.8919C66.1635 34.9213 65.5564 35.9962 65.0268 37.109C64.4902 38.2845 64.1085 39.5235 63.8912 40.7955C63.8103 41.4295 63.5225 42.0201 63.0716 42.4773C62.6711 42.8908 62.1666 43.1911 61.6101 43.3476C61.079 43.498 60.5209 43.5296 59.976 43.4399C59.4312 43.3503 58.9133 43.1417 58.4599 42.8294C57.7949 42.3532 57.3196 41.6611 57.1169 40.8737C56.8823 39.9542 56.8055 39.0022 56.8898 38.0575C56.9691 36.9818 57.1442 35.915 57.4132 34.8698C57.6858 33.7908 58.0155 32.7268 58.4007 31.682C58.7759 30.7042 59.1413 29.7264 59.5166 28.8365C59.8918 27.9467 60.1881 27.2818 60.4152 26.7831C61.6199 24.0354 62.9531 21.3561 64.3652 18.7453C65.7773 16.1345 67.3277 13.6019 68.9867 11.1279C69.3323 10.5803 69.7964 9.86652 70.3791 8.97669C70.9617 8.08686 71.6233 7.15792 72.3541 6.18986C73.0848 5.2218 73.8847 4.23419 74.7241 3.35414C75.4848 2.49046 76.3581 1.73086 77.3212 1.09534C78.1163 0.543465 79.0283 0.178896 79.9874 0.0294972C80.9292 -0.0741723 81.874 0.196644 82.6142 0.782431C83.1682 1.13981 83.6081 1.64581 83.8826 2.24141C84.1571 2.83701 84.2549 3.49763 84.1646 4.14618C83.8974 5.71693 83.269 7.20578 82.3278 8.49755C81.1276 10.2126 79.7689 11.8134 78.2692 13.2792C76.6102 14.9219 74.9117 16.4962 73.1539 18.0021L70.0236 23.918Z" fill="#2B2D42"/>
<path d="M107.637 17.3663C107.577 17.6407 107.501 17.9116 107.41 18.1779C107.993 17.4837 108.595 16.809 109.217 16.144C109.84 15.4791 110.481 14.8533 111.192 14.1884C111.965 13.5064 112.798 12.8944 113.681 12.3598C114.545 11.8216 115.487 11.4191 116.476 11.1669C117.424 10.9406 118.41 10.914 119.369 11.0886C120.418 11.2955 121.389 11.7863 122.173 12.5065C122.908 13.0976 123.462 13.8798 123.773 14.7653C124.069 15.6133 124.2 16.5092 124.158 17.4055C124.115 18.33 123.959 19.2459 123.694 20.1336C123.429 21.0169 123.099 21.8797 122.707 22.7151C122.095 24.045 121.392 25.3322 120.603 26.5678C119.823 27.7901 119.043 29.0124 118.273 30.2542L117.601 31.232C117.266 31.721 116.92 32.2588 116.545 32.8553C116.169 33.4517 115.824 34.0678 115.498 34.6838C115.226 35.1558 115.02 35.6625 114.886 36.1897C114.807 36.5808 114.886 36.8057 115.113 36.8546C115.34 36.9035 115.834 36.7177 116.574 36.2483C117.556 35.6689 118.467 34.9799 119.29 34.1949C120.277 33.2855 121.265 32.3077 122.252 31.2614C123.24 30.2151 124.227 29.1982 125.087 28.191C125.946 27.1838 126.736 26.3527 127.358 25.6975C127.614 25.3785 127.957 25.1378 128.345 25.0032C128.475 24.9643 128.61 24.952 128.745 24.9672C128.879 24.9823 129.008 25.0245 129.125 25.0912C129.24 25.1691 129.334 25.2725 129.401 25.393C129.468 25.5136 129.506 25.648 129.511 25.7855C129.541 26.1594 129.458 26.5337 129.274 26.8611C128.848 27.73 128.37 28.5724 127.842 29.3839C127.239 30.3618 126.588 31.3396 125.867 32.3174C125.146 33.2953 124.455 34.2731 123.734 35.251C123.013 36.2288 122.361 37.0111 121.759 37.7151C121.156 38.4191 120.347 39.3481 119.517 40.1792C118.713 40.9818 117.811 41.6815 116.831 42.262C115.924 42.8083 114.917 43.1737 113.869 43.3377C112.726 43.4768 111.568 43.276 110.541 42.7607C109.513 42.2989 108.635 41.5645 108.003 40.6388C107.441 39.7732 107.08 38.7945 106.946 37.7738C106.819 36.6985 106.859 35.6102 107.065 34.5469C107.28 33.4814 107.611 32.4421 108.052 31.4472C108.591 30.1429 109.235 28.884 109.978 27.6825C110.718 26.4798 111.479 25.3064 112.259 24.1427C112.766 23.4126 113.299 22.6597 113.859 21.8839C114.422 21.1115 114.945 20.339 115.409 19.5567C115.834 18.9407 116.011 18.5789 115.932 18.3735C115.853 18.1682 115.636 18.1682 115.261 18.2855C114.781 18.4577 114.32 18.6806 113.888 18.9504C113.345 19.2829 112.812 19.6154 112.289 19.9283C111.765 20.2412 111.301 20.5932 110.916 20.9061C110.531 21.219 110.294 21.3559 110.215 21.395C107.724 23.2843 105.434 25.4206 103.381 27.7705C101.902 29.435 100.555 31.2101 99.3523 33.0802C98.1509 34.9485 97.2077 36.9677 96.5478 39.0841C96.3631 39.5272 96.2466 39.9952 96.2022 40.4726C96.1431 40.9302 96.0027 41.3738 95.7875 41.7829C95.5801 42.2579 95.2368 42.6624 94.8 42.9465C94.3772 43.2168 93.8975 43.3874 93.3977 43.4452C92.8781 43.503 92.3521 43.4632 91.8473 43.3279C91.3337 43.193 90.8487 42.9678 90.4155 42.6629C89.9196 42.3361 89.5048 41.9025 89.2021 41.3945C88.8994 40.8865 88.7167 40.3173 88.6676 39.7294C88.5583 38.4333 88.6854 37.1283 89.0428 35.8768C89.4193 34.531 89.9184 33.2218 90.534 31.9654C91.1561 30.6845 91.6795 29.6382 92.114 28.8266C92.7079 27.7262 93.3674 26.6617 94.089 25.6388C94.8296 24.5925 95.5702 23.5365 96.301 22.4511C97.0317 21.3657 97.7625 20.2216 98.4537 19.0775C99.1148 17.9344 99.6828 16.741 100.152 15.5085C100.292 14.7831 100.658 14.1194 101.199 13.6115C101.681 13.1824 102.266 12.8828 102.897 12.7412C103.528 12.6177 104.177 12.6316 104.801 12.7819C105.426 12.9322 106.009 13.2153 106.512 13.6115C107.027 14.027 107.416 14.5751 107.637 15.1955C107.852 15.9035 107.852 16.6584 107.637 17.3663Z" fill="#2B2D42"/>
<path d="M133.253 9.13291C132.902 8.64186 132.679 8.07261 132.603 7.47561C132.527 6.87861 132.601 6.27232 132.819 5.71049C133.228 4.66745 133.965 3.78274 134.922 3.18767C135.877 2.58852 137.007 2.32343 138.131 2.43474C138.741 2.49408 139.328 2.69617 139.843 3.02432C140.358 3.35247 140.787 3.79726 141.094 4.32196C141.497 4.85915 141.775 5.47742 141.91 6.13304C142.045 6.78865 142.033 7.46559 141.874 8.11596C141.524 9.43222 140.86 10.6461 139.939 11.6557C138.963 12.7639 137.832 13.7286 136.581 14.5208C135.503 15.253 134.347 15.8662 133.135 16.3493C132.923 16.4473 132.689 16.4854 132.457 16.4595C132.225 16.4336 132.005 16.3447 131.821 16.2027C131.627 16.0725 131.469 15.8958 131.362 15.689C131.255 15.4821 131.202 15.2518 131.209 15.0195C131.229 14.6177 131.374 14.2318 131.624 13.9145C131.862 13.5809 132.077 13.2313 132.266 12.8682C132.489 12.3804 132.743 11.9069 133.026 11.4504C133.332 10.9321 133.628 10.3748 133.895 9.79784C133.663 9.59409 133.448 9.37169 133.253 9.13291Z" fill="#2B2D42"/>
<path d="M151.305 21.6003C151.781 20.8721 152.153 20.0824 152.411 19.2535C152.529 18.7254 152.411 18.3832 152.213 18.2072C152.039 18.115 151.847 18.0596 151.65 18.0444C151.453 18.0293 151.255 18.0547 151.068 18.1192C150.495 18.2632 149.939 18.4664 149.409 18.7254C148.806 19.0188 148.204 19.3415 147.592 19.7033C147.074 19.9922 146.579 20.3191 146.111 20.6811C145.04 21.3639 144.109 22.2396 143.365 23.2626C142.931 23.9764 142.822 24.4849 143.01 24.7978C143.09 24.9052 143.197 24.991 143.319 25.0474C143.441 25.1037 143.576 25.1289 143.711 25.1205C144.066 25.1205 144.471 25.1205 144.935 25.1205C145.396 25.1022 145.854 25.0532 146.308 24.9738C146.666 24.9051 147.03 24.8659 147.394 24.8565C148.589 24.7253 149.798 24.8657 150.93 25.2672C151.896 25.6111 152.766 26.1775 153.467 26.9197C154.142 27.6603 154.614 28.5589 154.84 29.5305C155.078 30.6295 155.078 31.766 154.84 32.865C154.515 34.5292 153.842 36.1079 152.865 37.4999C151.825 38.9747 150.503 40.2337 148.974 41.2059C147.369 42.2316 145.589 42.9605 143.721 43.3571C141.731 43.7763 139.668 43.7159 137.707 43.1811C137.107 43.0211 136.53 42.7879 135.989 42.4868C134.834 41.8677 133.9 40.9118 133.313 39.7489C133.016 39.1738 132.864 38.5366 132.868 37.891C132.855 37.1245 133.091 36.374 133.54 35.7496C133.939 35.1725 134.498 34.7211 135.149 34.449C135.738 34.1974 136.394 34.1458 137.016 34.3024C137.346 34.398 137.65 34.5678 137.903 34.7984C138.157 35.029 138.353 35.3143 138.477 35.6322C138.606 35.9631 138.819 36.2552 139.096 36.4798C139.373 36.7043 139.704 36.8537 140.057 36.9132C140.869 36.9591 141.677 36.776 142.388 36.3852C143.124 36.0502 143.82 35.6336 144.461 35.1433C145.199 34.5971 145.901 34.006 146.565 33.3734C147.16 32.8422 147.685 32.2376 148.125 31.5742C148.27 31.3857 148.364 31.1639 148.398 30.9296C148.433 30.6953 148.407 30.4562 148.323 30.2346C148.231 30.1116 148.107 30.0162 147.964 29.9592C147.821 29.9022 147.665 29.8858 147.513 29.9119C147.195 29.9194 146.879 29.9687 146.575 30.0586C145.601 30.2596 144.606 30.3384 143.612 30.2932C142.639 30.2611 141.677 30.083 140.758 29.7652C139.874 29.4675 139.066 28.9838 138.388 28.3473C137.669 27.6421 137.172 26.7454 136.956 25.7659C136.611 24.6069 136.553 23.3825 136.789 22.1968C137.026 21.0037 137.459 19.8574 138.072 18.8037C138.694 17.7377 139.447 16.7524 140.314 15.8702C141.148 15.0197 142.057 14.2442 143.03 13.5527C144.051 12.889 145.136 12.3257 146.269 11.8708C147.465 11.3772 148.724 11.0482 150.011 10.893C151.243 10.7355 152.494 10.8355 153.685 11.1863C154.903 11.5464 155.977 12.2746 156.756 13.2691C157.464 14.0867 157.898 15.1012 158 16.1733C158.063 17.2165 157.884 18.2601 157.477 19.2241C157.054 20.2063 156.436 21.0942 155.66 21.835C154.888 22.5933 153.967 23.1858 152.954 23.5755C152.174 23.8004 151.601 23.7124 151.255 23.2822C150.91 22.8519 150.92 22.2945 151.305 21.6003Z" fill="#2B2D42"/>
<path d="M94.8 55.5314L93.9606 57.4871H91.6301L95.669 49.0386H98.4834L99.3919 57.4871H97.1206L97.0318 55.5314H94.8ZM96.9725 53.918L96.8738 52.373C96.8738 51.8939 96.8145 51.1898 96.7651 50.6716C96.5479 51.1898 96.301 51.9036 96.0838 52.373L95.432 53.918H96.9725Z" fill="#414469"/>
<path d="M107.094 51.356L106.324 55.4238C106.156 56.2452 106.058 56.9492 105.959 57.5164H104.073L104.162 56.5385C103.916 56.8687 103.597 57.1378 103.228 57.3245C102.86 57.5112 102.452 57.6104 102.038 57.6142C100.962 57.6142 100.468 56.9786 100.468 55.9225C100.47 55.5248 100.513 55.1284 100.597 54.7393L101.248 51.3169H103.401L102.789 54.5535C102.738 54.8114 102.708 55.0731 102.7 55.3358C102.7 55.6292 102.819 55.8932 103.164 55.8932C103.717 55.8932 104.211 55.2185 104.438 54.0451L104.961 51.3169L107.094 51.356Z" fill="#414469"/>
<path d="M111.143 49.6057L110.817 51.356H112.081L111.755 52.9695H110.501L110.146 54.6807C110.098 54.9095 110.068 55.1416 110.057 55.3749C110.057 55.6487 110.165 55.8541 110.56 55.8541H111.064L110.788 57.5164C110.402 57.6233 110.003 57.6728 109.603 57.6631C108.427 57.6631 107.845 57.1155 107.845 56.2843C107.85 55.9025 107.897 55.5223 107.983 55.15L108.408 52.9793H107.637L107.944 51.3658H108.704L108.941 50.1044L111.143 49.6057Z" fill="#414469"/>
<path d="M118.648 53.7027C118.683 54.2144 118.609 54.7277 118.431 55.2094C118.253 55.6911 117.975 56.1304 117.615 56.499C117.255 56.8676 116.82 57.1573 116.34 57.3494C115.86 57.5415 115.344 57.6316 114.826 57.614C114.473 57.6462 114.117 57.6035 113.781 57.4886C113.446 57.3738 113.139 57.1895 112.881 56.948C112.623 56.7065 112.42 56.4134 112.286 56.0882C112.151 55.763 112.088 55.4131 112.101 55.0619C112.074 54.5519 112.153 54.0418 112.334 53.5635C112.514 53.0852 112.793 52.6489 113.151 52.2819C113.51 51.9149 113.941 51.625 114.418 51.4303C114.895 51.2357 115.407 51.1404 115.923 51.1506C116.276 51.12 116.631 51.1639 116.966 51.2793C117.301 51.3947 117.607 51.5791 117.864 51.8202C118.122 52.0614 118.325 52.3538 118.46 52.6783C118.595 53.0028 118.659 53.3519 118.648 53.7027ZM114.333 55.0228C114.333 55.629 114.609 56.0006 115.133 56.0006C116.011 56.0006 116.416 54.6121 116.416 53.732C116.416 53.2138 116.199 52.7542 115.636 52.7542C114.708 52.8324 114.333 54.309 114.333 55.0619V55.0228Z" fill="#414469"/>
<path d="M118.628 60L119.804 53.82C119.942 53.0964 120.1 51.9817 120.169 51.3559H122.144L122.055 52.1382C122.277 51.8516 122.562 51.6196 122.89 51.4602C123.217 51.3008 123.577 51.2182 123.941 51.219C125.284 51.219 125.975 52.2848 125.975 53.5951C125.975 55.7268 124.593 57.6532 122.401 57.6532C122.027 57.664 121.656 57.5798 121.324 57.4087L120.821 60H118.628ZM121.591 55.7757C121.774 55.9504 122.018 56.0485 122.272 56.0495C123.082 56.0495 123.694 54.8077 123.694 53.7614C123.694 53.3409 123.507 52.94 123.052 52.94C122.43 52.94 121.966 53.6147 121.788 54.6121L121.591 55.7757Z" fill="#414469"/>
<path d="M130.439 57.5164C130.439 57.1643 130.439 56.8123 130.439 56.4603C130.255 56.8217 129.972 57.1249 129.623 57.3358C129.274 57.5466 128.873 57.6565 128.464 57.6533C128.188 57.6471 127.917 57.5838 127.668 57.4676C127.418 57.3514 127.196 57.1847 127.016 56.9784C126.835 56.7721 126.701 56.5307 126.62 56.2697C126.539 56.0087 126.515 55.7339 126.548 55.4629C126.526 54.8803 126.63 54.2998 126.852 53.76C127.074 53.2201 127.41 52.7332 127.837 52.3318C128.264 51.9303 128.772 51.6235 129.328 51.4316C129.884 51.2398 130.475 51.1673 131.061 51.2191C131.812 51.2226 132.557 51.338 133.273 51.5613L132.611 54.7882C132.45 55.6888 132.367 56.6016 132.365 57.5164H130.439ZM130.893 52.8619C130.762 52.8484 130.629 52.8484 130.498 52.8619C129.511 52.8619 128.829 54.2015 128.829 55.1011C128.829 55.678 129.076 55.9812 129.451 55.9812C129.827 55.9812 130.37 55.59 130.636 54.1331L130.893 52.8619Z" fill="#414469"/>
<path d="M133.629 57.5163L134.31 53.9765C134.488 52.9987 134.567 51.8644 134.626 51.3559H136.482C136.482 51.7666 136.433 52.1773 136.394 52.588C136.569 52.2057 136.845 51.877 137.192 51.6362C137.54 51.3955 137.946 51.2514 138.369 51.219H138.724L138.299 53.292H138.013C136.749 53.292 136.315 54.2698 136.107 55.4139L135.702 57.5163H133.629Z" fill="#414469"/>
<path d="M142.733 49.6057L142.407 51.356H143.662L143.346 52.9695H142.091L141.736 54.6807C141.688 54.9095 141.658 55.1416 141.647 55.3749C141.647 55.6487 141.756 55.8541 142.151 55.8541H142.654L142.368 57.5164C141.983 57.6245 141.583 57.6739 141.183 57.6631C140.018 57.6631 139.435 57.1155 139.435 56.2843C139.437 55.9028 139.48 55.5225 139.563 55.15L139.988 52.9793H139.238L139.544 51.3658H140.304L140.541 50.1044L142.733 49.6057Z" fill="#414469"/>
<path d="M143.82 55.6584C144.363 55.9188 144.954 56.0684 145.558 56.0985C145.982 56.0985 146.17 55.9322 146.17 55.7269C146.17 55.5215 145.972 55.3358 145.429 55.0913C145.056 54.9796 144.725 54.7612 144.478 54.4637C144.23 54.1662 144.077 53.8028 144.037 53.4192C144.037 52.06 145.251 51.2093 146.999 51.2093C147.59 51.1842 148.178 51.2947 148.718 51.532L148.234 53.0183C147.818 52.8453 147.371 52.7556 146.92 52.7543C146.506 52.7543 146.239 52.8814 146.239 53.1259C146.239 53.3703 146.466 53.4876 146.95 53.693C147.621 54.0157 148.441 54.485 148.441 55.4042C148.441 56.871 147.167 57.6435 145.38 57.6435C144.664 57.6676 143.955 57.4913 143.336 57.135L143.82 55.6584Z" fill="#414469"/>
</g>
<defs>
<clipPath id="clip0_241_10924">
<rect width="158" height="60" fill="white"/>
</clipPath>
</defs>
</svg>
