<svg width="92" height="35" viewBox="0 0 92 35" fill="none" xmlns="http://www.w3.org/2000/svg">
<g clip-path="url(#clip0_245_12052)">
<path d="M4.26115 8.74435C4.21323 7.91087 4.41317 7.08178 4.83616 6.36006C5.25826 5.62437 5.79813 4.96166 6.43465 4.39787C7.08749 3.81896 7.80747 3.31919 8.57941 2.90912C9.28597 2.5221 10.0319 2.21044 10.8047 1.97936C11.5947 1.75281 12.4057 1.60567 13.2254 1.54015C14.1829 1.44803 15.148 1.46909 16.1004 1.60289C17.0141 1.72801 17.9003 2.0037 18.7224 2.41857C19.5043 2.79555 20.1186 3.44549 20.4474 4.24386C20.5043 4.35115 20.5341 4.47057 20.5341 4.59181C20.5341 4.71305 20.5043 4.83247 20.4474 4.93976C20.3121 5.17217 20.095 5.34684 19.8379 5.4303C19.2058 5.65168 18.6832 6.10482 18.3774 6.6966C17.923 7.59243 17.5479 8.52569 17.2562 9.48588C18.6132 9.3794 19.9165 9.24441 21.1662 9.08089C22.4082 8.92118 23.6329 8.74435 24.8347 8.51049C25.1667 8.43724 25.5125 8.45498 25.8352 8.56182C25.9427 8.59104 26.0412 8.64655 26.1216 8.72328C26.2019 8.80001 26.2616 8.89551 26.2952 9.00103C26.3085 9.11776 26.297 9.23596 26.2613 9.34798C26.2256 9.46 26.1666 9.56334 26.0882 9.65129C25.8652 9.93944 25.5725 10.167 25.2372 10.313C23.7607 10.8937 22.2446 11.3703 20.7004 11.739L16.1579 12.7714C15.6807 14.1689 15.1517 15.5265 14.5594 16.8441C13.9712 18.1666 13.2548 19.4294 12.4204 20.6145C11.9907 21.2284 11.518 21.8116 11.0059 22.3599C10.4793 22.9293 9.90191 23.4505 9.2809 23.9171C8.6814 24.3807 8.02194 24.7625 7.32015 25.0522C6.61755 25.3347 5.86993 25.4912 5.11216 25.5142C4.08723 25.5404 3.08043 25.2428 2.23716 24.6643C1.3774 24.0921 0.718299 23.2689 0.351155 22.3086C0.0778833 21.5978 -0.0416202 20.8379 0.000404998 20.0783C0.0447803 19.3361 0.203801 18.6051 0.471905 17.9107C0.752219 17.2047 1.12329 16.5375 1.5759 15.9257C2.01562 15.3196 2.51655 14.7596 3.07091 14.2545C4.35971 13.0803 5.85187 12.1469 7.47541 11.4994C9.05258 10.8834 10.68 10.4025 12.3399 10.062C12.7252 9.29764 13.1392 8.52189 13.5819 7.74614C14.0165 6.97528 14.5352 6.25414 15.1287 5.59572C14.2432 5.7098 13.3289 5.86952 12.3917 6.06916C11.4804 6.26411 10.5833 6.51947 9.7064 6.8335C8.90782 7.11696 8.13778 7.47408 7.40641 7.90015C6.75776 8.26388 6.17477 8.73233 5.68141 9.28624C5.57917 9.40466 5.44167 9.48781 5.28872 9.52369C5.13577 9.55957 4.97528 9.54633 4.8304 9.48588C4.66537 9.44363 4.51947 9.34751 4.41621 9.213C4.31295 9.07849 4.25833 8.91341 4.26115 8.74435ZM6.98091 16.6901C6.70336 16.915 6.44206 17.159 6.1989 17.4202C5.85547 17.7743 5.54199 18.1559 5.26165 18.561C4.99714 18.9292 4.78616 19.3324 4.63491 19.7589C4.55969 19.914 4.53864 20.0896 4.57508 20.2579C4.61151 20.4262 4.70336 20.5778 4.83616 20.6886C4.99233 20.8263 5.19064 20.9079 5.39921 20.9204C5.60778 20.9328 5.81451 20.8753 5.98616 20.7571C6.4737 20.4744 6.91564 20.1206 7.29715 19.7075C7.7159 19.2695 8.10035 18.8004 8.44715 18.3043C8.7864 17.8195 9.02216 17.4772 9.12566 17.2719C9.40165 16.8213 9.64891 16.365 9.87316 15.9029C10.0974 15.4409 10.3159 14.9732 10.5229 14.4997C9.86165 14.8192 9.23491 15.15 8.63116 15.4979C8.04595 15.8451 7.49362 16.2441 6.98091 16.6901Z" fill="#2B2D42"/>
<path d="M41.2506 8.43624C41.4798 8.36941 41.725 8.38147 41.9463 8.47047C42.0237 8.50721 42.0924 8.55974 42.1478 8.62461C42.2033 8.68948 42.2444 8.76524 42.2683 8.84693C42.3118 9.02429 42.2872 9.21132 42.1993 9.37171C42.0959 9.57883 41.9315 9.7499 41.7278 9.86225C40.4741 10.6415 39.1474 11.2986 37.7661 11.8244C36.4722 12.3207 35.1195 12.6504 33.7411 12.8055C33.6489 13.7778 33.4384 14.7354 33.1143 15.6576C32.8017 16.5266 32.4408 17.3778 32.0333 18.2073C31.7063 18.8832 31.3376 19.5385 30.9293 20.1695C30.5112 20.8229 30.0522 21.4496 29.5551 22.0461C29.0595 22.6393 28.5131 23.189 27.9221 23.6888C27.3485 24.1731 26.7075 24.5727 26.0188 24.8753C25.0211 25.3343 23.9096 25.4929 22.8218 25.3316C21.8117 25.1751 20.8581 24.7669 20.0503 24.1452C19.2359 23.5112 18.5936 22.6859 18.1816 21.7438C17.7366 20.7529 17.5773 19.659 17.7216 18.5837C17.9144 16.8653 18.4087 15.1936 19.1821 13.644C19.9425 12.0779 20.9543 10.6446 22.1778 9.40022C22.7457 8.81061 23.3653 8.27231 24.0293 7.79169C24.6886 7.30974 25.4149 6.92545 26.1856 6.65088C26.4571 6.54861 26.7384 6.47407 27.0251 6.42842C27.3461 6.37107 27.6709 6.33675 27.9968 6.32574C28.3155 6.31349 28.6344 6.34226 28.9456 6.41131C29.2418 6.47243 29.5243 6.58646 29.7793 6.74785C30.4015 6.79619 30.9982 7.01325 31.5043 7.37529C32.0474 7.74486 32.5188 8.20862 32.8958 8.74426C34.3105 9.02742 35.756 9.12903 37.1968 9.04658C38.5619 8.94685 39.9172 8.7428 41.2506 8.43624ZM24.0006 15.0358C23.4839 15.8774 23.0617 16.7726 22.7413 17.7053C22.4615 18.4825 22.2687 19.2878 22.1663 20.1067C22.1131 20.3468 22.1086 20.5951 22.153 20.8369C22.1975 21.0788 22.2899 21.3095 22.4251 21.5156C22.6666 21.7723 23.0978 21.6639 23.7361 21.1905C24.7871 20.3756 25.7147 19.4151 26.4903 18.3385C26.9239 17.7722 27.3214 17.1798 27.6806 16.5645C28.0403 15.9497 28.3573 15.3113 28.6293 14.6536C28.7443 14.3342 28.8593 14.0034 28.9686 13.6554C29.0882 13.2843 29.1691 12.9021 29.2101 12.5146C28.8635 12.3997 28.536 12.2344 28.2383 12.0241C27.9002 11.7761 27.6067 11.4734 27.3701 11.1285C26.6808 11.6599 26.054 12.2664 25.5013 12.9367C24.942 13.5983 24.4327 14.2999 23.9776 15.0358H24.0006Z" fill="#2B2D42"/>
<path d="M40.7732 13.9521L41.86 12.5489C42.2242 12.085 42.6075 11.6287 43.01 11.18C43.4662 10.6362 44.0047 10.0221 44.6257 9.33757C45.2262 8.66745 45.8992 8.0649 46.6325 7.5408C47.3037 7.05276 48.0659 6.70183 48.875 6.50837C49.6993 6.33724 50.5583 6.47114 51.29 6.88483C51.7357 7.10537 52.1206 7.43038 52.4112 7.8317C52.6859 8.21165 52.8814 8.64215 52.9862 9.098C53.0851 9.56486 53.1065 10.0446 53.0495 10.5183C52.9839 11.0004 52.8683 11.4744 52.7045 11.9329C52.2182 13.3436 51.5494 14.6857 50.715 15.9257C49.887 17.1578 49.082 18.3671 48.2885 19.5649C47.9925 19.9635 47.767 20.409 47.6215 20.8826C47.564 21.1735 47.6215 21.3503 47.7767 21.4073C48.0387 21.4451 48.3054 21.384 48.5242 21.2362C48.9413 21.0237 49.3281 20.7571 49.6742 20.4433C50.1277 20.0601 50.5542 19.6465 50.9507 19.2056C51.3341 18.7644 51.7366 18.3423 52.1582 17.9393C52.6125 17.4658 53.061 16.9867 53.5152 16.5018C53.9695 16.017 54.4237 15.515 54.878 14.996C55.0347 14.8024 55.2474 14.661 55.4875 14.591C55.5728 14.5661 55.6625 14.5593 55.7507 14.5711C55.8389 14.5828 55.9236 14.613 55.9992 14.6594C56.142 14.7592 56.2391 14.911 56.2695 15.0815C56.3119 15.2962 56.2752 15.5189 56.166 15.709C55.9877 16.0455 55.7347 16.4505 55.4185 16.9239C55.1022 17.3974 54.7687 17.8765 54.418 18.3614C54.0672 18.8462 53.6877 19.3482 53.337 19.7703L52.4687 20.9111C52.0605 21.4815 51.6005 22.0519 51.0887 22.6223C50.5994 23.2263 50.0353 23.7667 49.4097 24.2308C48.8176 24.6696 48.149 24.9964 47.4375 25.1948C46.6997 25.3863 45.9179 25.3198 45.2237 25.0066C44.6249 24.7857 44.0981 24.4071 43.7 23.9114C43.3529 23.4552 43.1096 22.9298 42.987 22.3713C42.8628 21.7878 42.8453 21.187 42.9352 20.5973C43.0243 19.9913 43.1726 19.3953 43.378 18.8177C43.6668 18.0605 44.0248 17.3312 44.4475 16.6387C44.8672 15.9486 45.3042 15.2812 45.7585 14.6423C46.2127 14.0035 46.6785 13.3703 47.15 12.7486C47.6323 12.1213 48.0796 11.4681 48.4897 10.7921C48.737 10.3814 48.8232 10.1304 48.7427 10.0278C48.6622 9.92509 48.4725 9.9479 48.1677 10.0962C47.7486 10.315 47.3503 10.5708 46.9775 10.8606C46.4887 11.2199 45.9425 11.6705 45.3272 12.2124C44.633 12.8116 43.9853 13.4618 43.3895 14.1575C42.8145 14.842 42.2395 15.5493 41.6242 16.268L40.2097 18.0134C39.744 18.5838 39.3185 19.1542 38.9217 19.7703C38.5256 20.3707 38.1721 20.9978 37.8637 21.6469C37.5513 22.3326 37.329 23.0553 37.2025 23.7973C37.1554 24.1672 36.9878 24.5117 36.7252 24.7784C36.492 25.0196 36.1983 25.1948 35.8742 25.2861C35.565 25.3738 35.24 25.3922 34.9228 25.3399C34.6055 25.2876 34.304 25.166 34.04 24.9838C33.6527 24.706 33.376 24.3023 33.258 23.8429C33.1214 23.3066 33.0767 22.7513 33.1257 22.2002C33.1719 21.5726 33.2739 20.9504 33.4305 20.3407C33.5892 19.7113 33.7812 19.0906 34.0055 18.4811C34.224 17.9107 34.4367 17.3403 34.6552 16.8213C34.8737 16.3022 35.0462 15.9143 35.1785 15.6234C35.88 14.0206 36.6562 12.4577 37.4785 10.9347C38.3007 9.41172 39.2035 7.93437 40.1695 6.49125C40.3707 6.17183 40.641 5.75543 40.9802 5.23636C41.3195 4.71729 41.7047 4.17541 42.1302 3.61071C42.5557 3.04601 43.0215 2.4699 43.5102 1.95654C43.9532 1.45273 44.4617 1.00963 45.0225 0.638907C45.4854 0.316981 46.0165 0.104315 46.575 0.017166C47.1233 -0.0433078 47.6735 0.114669 48.1045 0.456377C48.4271 0.664846 48.6832 0.960017 48.843 1.30745C49.0029 1.65488 49.0598 2.04024 49.0072 2.41857C48.8517 3.33484 48.4858 4.20333 47.9377 4.95687C47.2389 5.9573 46.4477 6.89109 45.5745 7.74614C44.6085 8.70442 43.6195 9.62277 42.596 10.5012L40.7732 13.9521Z" fill="#2B2D42"/>
<path d="M62.6753 10.1303C62.6398 10.2904 62.5956 10.4484 62.543 10.6038C62.8823 10.1988 63.233 9.80521 63.5953 9.41734C63.9575 9.02946 64.3313 8.66441 64.7453 8.27653C65.1952 7.87872 65.6801 7.52174 66.1943 7.20988C66.6972 6.8959 67.2461 6.66114 67.8215 6.51398C68.3737 6.38202 68.9476 6.36648 69.5063 6.46835C70.1172 6.589 70.6825 6.8753 71.1393 7.29544C71.5671 7.64027 71.8897 8.09654 72.0708 8.61307C72.2431 9.10773 72.3192 9.63034 72.295 10.1532C72.2695 10.6925 72.1788 11.2268 72.0248 11.7446C71.8705 12.2598 71.6783 12.7631 71.4498 13.2505C71.0933 14.0262 70.6841 14.7771 70.225 15.4978C69.7708 16.2109 69.3165 16.9239 68.868 17.6483L68.477 18.2187C68.2815 18.5039 68.0803 18.8176 67.8618 19.1655C67.6433 19.5135 67.442 19.8728 67.2523 20.2322C67.0937 20.5076 66.9738 20.8031 66.8958 21.1106C66.8498 21.3388 66.8958 21.47 67.028 21.4985C67.1603 21.527 67.4478 21.4186 67.879 21.1448C68.4505 20.8068 68.9811 20.4049 69.4603 19.947C70.0353 19.4165 70.6103 18.8461 71.1853 18.2358C71.7603 17.6255 72.3353 17.0322 72.8355 16.4447C73.3358 15.8572 73.7958 15.3724 74.158 14.9902C74.3073 14.8041 74.5067 14.6637 74.733 14.5852C74.8082 14.5625 74.8874 14.5553 74.9655 14.5642C75.0436 14.573 75.1191 14.5976 75.1873 14.6365C75.2539 14.682 75.309 14.7423 75.3479 14.8126C75.3869 14.8829 75.4086 14.9613 75.4115 15.0415C75.429 15.2596 75.381 15.478 75.2735 15.669C75.0259 16.1758 74.7474 16.6672 74.4398 17.1406C74.089 17.711 73.7095 18.2814 73.2898 18.8518C72.87 19.4222 72.4675 19.9926 72.0478 20.563C71.628 21.1334 71.2485 21.5898 70.8978 22.0005C70.547 22.4111 70.0755 22.953 69.5925 23.4379C69.1243 23.906 68.5989 24.3142 68.0285 24.6528C67.5002 24.9715 66.9142 25.1846 66.3035 25.2803C65.6382 25.3615 64.9637 25.2443 64.3658 24.9437C63.7675 24.6744 63.256 24.246 62.888 23.706C62.5606 23.201 62.3504 22.6301 62.2728 22.0347C62.1986 21.4074 62.2219 20.7726 62.3418 20.1523C62.4671 19.5308 62.6599 18.9245 62.9168 18.3442C63.2302 17.5834 63.6052 16.849 64.038 16.1481C64.4693 15.4465 64.912 14.762 65.3663 14.0832C65.6614 13.6573 65.9719 13.2181 66.2978 12.7656C66.6255 12.315 66.9303 11.8644 67.2005 11.4081C67.4478 11.0487 67.5513 10.8376 67.5053 10.7179C67.4593 10.5981 67.3328 10.5981 67.1143 10.6665C66.8346 10.767 66.5666 10.897 66.315 11.0544C65.9988 11.2483 65.6883 11.4423 65.3835 11.6248C65.0788 11.8073 64.8085 12.0127 64.5843 12.1952C64.36 12.3777 64.222 12.4576 64.176 12.4804C62.7255 13.5825 61.3923 14.8287 60.197 16.1994C59.3357 17.1704 58.5514 18.2059 57.851 19.2967C57.1515 20.3866 56.6022 21.5645 56.218 22.799C56.1105 23.0575 56.0426 23.3305 56.0168 23.609C55.9823 23.8759 55.9006 24.1347 55.7753 24.3733C55.6545 24.6504 55.4546 24.8864 55.2003 25.0521C54.9541 25.2098 54.6748 25.3093 54.3838 25.343C54.0812 25.3767 53.7749 25.3535 53.481 25.2746C53.1819 25.1959 52.8995 25.0645 52.6473 24.8867C52.3585 24.6961 52.117 24.4431 51.9408 24.1468C51.7645 23.8504 51.6581 23.5184 51.6295 23.1755C51.5659 22.4194 51.6399 21.6582 51.848 20.9281C52.0672 20.1431 52.3579 19.3794 52.7163 18.6465C53.0785 17.8992 53.3833 17.2889 53.6363 16.8155C53.9821 16.1736 54.3661 15.5527 54.7863 14.956C55.2175 14.3456 55.6488 13.7296 56.0743 13.0964C56.4998 12.4633 56.9253 11.7959 57.3278 11.1286C57.7127 10.4617 58.0434 9.76555 58.3168 9.04658C58.3979 8.62343 58.6111 8.23631 58.9263 7.93999C59.2068 7.68973 59.5473 7.51495 59.9153 7.43233C60.2822 7.36032 60.6605 7.36843 61.0239 7.4561C61.3873 7.54376 61.7272 7.70889 62.0198 7.93999C62.3197 8.18238 62.5465 8.50211 62.6753 8.86405C62.8003 9.27704 62.8003 9.71735 62.6753 10.1303Z" fill="#2B2D42"/>
<path d="M77.591 5.32763C77.3865 5.04119 77.2565 4.70912 77.2123 4.36087C77.1682 4.01263 77.2114 3.65896 77.338 3.33122C77.5761 2.72278 78.0056 2.2067 78.5628 1.85958C79.1187 1.51007 79.7766 1.35544 80.4315 1.42037C80.7864 1.45498 81.128 1.57287 81.4279 1.76429C81.7279 1.95571 81.9776 2.21517 82.1565 2.52125C82.391 2.83461 82.5533 3.19527 82.6318 3.57771C82.7103 3.96015 82.7031 4.35503 82.6107 4.73441C82.407 5.50223 82.0205 6.21034 81.4838 6.79928C80.9155 7.44571 80.2572 8.00847 79.5287 8.47056C78.9011 8.89768 78.2281 9.25537 77.522 9.53722C77.399 9.59435 77.2624 9.6166 77.1275 9.6015C76.9925 9.58639 76.8644 9.53453 76.7573 9.45166C76.644 9.37575 76.5519 9.27267 76.4896 9.152C76.4273 9.03134 76.3967 8.897 76.4007 8.76147C76.4125 8.52709 76.4968 8.30201 76.6422 8.11691C76.781 7.92232 76.9058 7.71838 77.016 7.50658C77.1461 7.22202 77.294 6.94579 77.4588 6.67949C77.637 6.37718 77.8095 6.05205 77.9647 5.71551C77.8296 5.59665 77.7046 5.46692 77.591 5.32763Z" fill="#2B2D42"/>
<path d="M88.1018 12.6002C88.3788 12.1754 88.5955 11.7147 88.7458 11.2312C88.8148 10.9232 88.7458 10.7236 88.6308 10.6209C88.5292 10.5671 88.4175 10.5348 88.3027 10.5259C88.1879 10.5171 88.0725 10.532 87.9638 10.5695C87.6302 10.6536 87.3064 10.7721 86.9978 10.9232C86.647 11.0943 86.2963 11.2826 85.9398 11.4936C85.6383 11.6622 85.35 11.8528 85.0773 12.064C84.4541 12.4623 83.9119 12.9731 83.4787 13.5699C83.2257 13.9863 83.1625 14.2829 83.2718 14.4654C83.3186 14.5281 83.3805 14.5781 83.4518 14.611C83.5231 14.6439 83.6015 14.6585 83.68 14.6536C83.887 14.6536 84.1228 14.6536 84.393 14.6536C84.6611 14.643 84.9281 14.6144 85.1923 14.5681C85.4008 14.528 85.6124 14.5051 85.8247 14.4996C86.5204 14.4231 87.2244 14.505 87.8833 14.7392C88.4459 14.9398 88.9524 15.2702 89.361 15.7032C89.7535 16.1352 90.0286 16.6594 90.1603 17.2262C90.2989 17.8672 90.2989 18.5302 90.1603 19.1712C89.9709 20.1421 89.5792 21.063 89.0103 21.875C88.4045 22.7353 87.6349 23.4697 86.7448 24.0368C85.81 24.6351 84.7735 25.0603 83.6857 25.2917C82.5271 25.5362 81.3261 25.501 80.184 25.189C79.8349 25.0956 79.4988 24.9596 79.1835 24.784C78.5112 24.4228 77.9672 23.8653 77.6253 23.1869C77.4527 22.8514 77.364 22.4797 77.3665 22.1031C77.359 21.656 77.496 21.2182 77.7575 20.8539C77.9903 20.5173 78.3156 20.254 78.6948 20.0953C79.0375 19.9485 79.4197 19.9184 79.7815 20.0097C79.9739 20.0655 80.1507 20.1646 80.2983 20.2991C80.4458 20.4336 80.5602 20.6 80.6325 20.7855C80.7073 20.9785 80.8315 21.1489 80.9928 21.2799C81.1541 21.4109 81.347 21.498 81.5525 21.5327C82.0251 21.5595 82.4957 21.4527 82.9095 21.2247C83.3383 21.0293 83.7434 20.7863 84.117 20.5003C84.5464 20.1817 84.9555 19.8368 85.3418 19.4679C85.6886 19.158 85.9939 18.8053 86.2503 18.4183C86.3346 18.3084 86.3893 18.179 86.4094 18.0423C86.4296 17.9056 86.4144 17.7661 86.3653 17.6369C86.3121 17.5651 86.2398 17.5095 86.1565 17.4762C86.0732 17.443 85.9822 17.4334 85.8938 17.4486C85.7087 17.453 85.525 17.4818 85.3475 17.5342C84.7806 17.6514 84.201 17.6974 83.6225 17.6711C83.0561 17.6523 82.4958 17.5485 81.9607 17.3631C81.446 17.1894 80.9752 16.9073 80.5808 16.536C80.1619 16.1246 79.8723 15.6015 79.747 15.0301C79.5458 14.3541 79.5123 13.6398 79.6493 12.9481C79.7873 12.2522 80.0399 11.5835 80.3968 10.9688C80.7588 10.347 81.1972 9.77224 81.702 9.25762C82.1878 8.76152 82.7169 8.30913 83.2833 7.90576C83.8782 7.51858 84.5099 7.18999 85.1692 6.92466C85.866 6.63675 86.5992 6.44483 87.3485 6.35426C88.0657 6.26241 88.7944 6.32071 89.4875 6.52538C90.1968 6.7354 90.822 7.16022 91.2758 7.74034C91.6879 8.21724 91.941 8.80906 92.0003 9.43444C92.037 10.043 91.9327 10.6517 91.6955 11.2141C91.4494 11.787 91.0896 12.3049 90.6375 12.7371C90.1883 13.1794 89.652 13.5251 89.062 13.7524C88.6078 13.8836 88.2743 13.8323 88.073 13.5813C87.8718 13.3303 87.8775 13.0052 88.1018 12.6002Z" fill="#2B2D42"/>
<path d="M55.2002 32.3932L54.7115 33.534H53.3545L55.7062 28.6057H57.345L57.874 33.534H56.5515L56.4997 32.3932H55.2002ZM56.4652 31.452L56.4077 30.5508C56.4077 30.2713 56.3732 29.8606 56.3445 29.5583C56.218 29.8606 56.0742 30.277 55.9477 30.5508L55.5682 31.452H56.4652Z" fill="#414469"/>
<path d="M62.3592 29.9576L61.9107 32.3305C61.813 32.8097 61.7555 33.2203 61.698 33.5512H60.5997L60.6515 32.9808C60.5087 33.1734 60.3226 33.3304 60.108 33.4393C59.8934 33.5482 59.6562 33.606 59.4152 33.6082C58.7885 33.6082 58.501 33.2375 58.501 32.6214C58.5022 32.3894 58.5273 32.1582 58.5757 31.9312L58.9552 29.9348H60.2087L59.8522 31.8229C59.8224 31.9733 59.8051 32.1259 59.8005 32.2792C59.8005 32.4503 59.8695 32.6043 60.0707 32.6043C60.3927 32.6043 60.6802 32.2107 60.8125 31.5262L61.1172 29.9348L62.3592 29.9576Z" fill="#414469"/>
<path d="M64.7161 28.9366L64.5263 29.9577H65.2623L65.0726 30.8988H64.3423L64.1353 31.897C64.1075 32.0305 64.0902 32.1659 64.0836 32.302C64.0836 32.4617 64.1468 32.5815 64.3768 32.5815H64.6701L64.5091 33.5512C64.2846 33.6136 64.0521 33.6424 63.8191 33.6368C63.1348 33.6368 62.7956 33.3174 62.7956 32.8325C62.7988 32.6098 62.8258 32.388 62.8761 32.1708L63.1233 30.9045H62.6748L62.8531 29.9634H63.2958L63.4338 29.2276L64.7161 28.9366Z" fill="#414469"/>
<path d="M69.0858 31.3265C69.1061 31.6251 69.063 31.9245 68.9594 32.2054C68.8557 32.4864 68.6938 32.7427 68.4841 32.9577C68.2744 33.1727 68.0215 33.3417 67.7419 33.4538C67.4622 33.5658 67.162 33.6184 66.8606 33.6082C66.6548 33.6269 66.4473 33.602 66.252 33.535C66.0567 33.468 65.878 33.3605 65.7278 33.2196C65.5777 33.0788 65.4595 32.9078 65.3812 32.7181C65.3028 32.5284 65.2662 32.3243 65.2736 32.1194C65.2577 31.8219 65.3038 31.5244 65.4091 31.2454C65.5143 30.9663 65.6764 30.7118 65.8852 30.4977C66.094 30.2836 66.345 30.1145 66.6227 30.001C66.9003 29.8874 67.1986 29.8319 67.4988 29.8378C67.7044 29.8199 67.9115 29.8455 68.1064 29.9129C68.3013 29.9802 68.4796 30.0878 68.6295 30.2284C68.7795 30.3691 68.8977 30.5397 68.9763 30.729C69.055 30.9182 69.0923 31.1219 69.0858 31.3265ZM66.5731 32.0966C66.5731 32.4502 66.7341 32.667 67.0388 32.667C67.5506 32.667 67.7863 31.857 67.7863 31.3436C67.7863 31.0413 67.6598 30.7732 67.3321 30.7732C66.7916 30.8189 66.5731 31.6802 66.5731 32.1194V32.0966Z" fill="#414469"/>
<path d="M69.0752 35L69.7594 31.3951C69.8399 30.973 69.9319 30.3227 69.9722 29.9577H71.1222L71.0704 30.414C71.1996 30.2468 71.3659 30.1115 71.5564 30.0185C71.7468 29.9255 71.9564 29.8774 72.1687 29.8778C72.9507 29.8778 73.3532 30.4996 73.3532 31.2639C73.3532 32.5074 72.5482 33.6311 71.2717 33.6311C71.0539 33.6374 70.8382 33.5883 70.6449 33.4885L70.3517 35H69.0752ZM70.8002 32.5359C70.9068 32.6378 71.0489 32.695 71.1969 32.6956C71.6684 32.6956 72.0249 31.9712 72.0249 31.3609C72.0249 31.1156 71.9157 30.8817 71.6512 30.8817C71.2889 30.8817 71.0187 31.2753 70.9152 31.8571L70.8002 32.5359Z" fill="#414469"/>
<path d="M75.9516 33.5512C75.9516 33.3458 75.9516 33.1405 75.9516 32.9351C75.8444 33.1459 75.6799 33.3228 75.4766 33.4458C75.2734 33.5688 75.0396 33.6329 74.8016 33.631C74.6411 33.6274 74.4832 33.5905 74.338 33.5227C74.1928 33.4549 74.0635 33.3577 73.9584 33.2373C73.8534 33.117 73.7749 32.9762 73.7279 32.8239C73.681 32.6717 73.6668 32.5114 73.6861 32.3533C73.6733 32.0135 73.7336 31.6748 73.863 31.3599C73.9923 31.045 74.1878 30.761 74.4364 30.5268C74.685 30.2926 74.9809 30.1136 75.3046 30.0017C75.6284 29.8898 75.9724 29.8476 76.3138 29.8777C76.7508 29.8798 77.185 29.9471 77.6018 30.0774L77.2166 31.9597C77.1223 32.4851 77.0743 33.0176 77.0728 33.5512H75.9516ZM76.2161 30.836C76.1396 30.8282 76.0625 30.8282 75.9861 30.836C75.4111 30.836 75.0143 31.6175 75.0143 32.1423C75.0143 32.4788 75.1581 32.6556 75.3766 32.6556C75.5951 32.6556 75.9113 32.4275 76.0666 31.5776L76.2161 30.836Z" fill="#414469"/>
<path d="M77.8086 33.5512L78.2053 31.4863C78.3088 30.9159 78.3548 30.2543 78.3893 29.9577H79.4703C79.4703 30.1972 79.4416 30.4368 79.4186 30.6764C79.5207 30.4534 79.6813 30.2617 79.8836 30.1212C80.0859 29.9807 80.3224 29.8967 80.5686 29.8778H80.7756L80.5283 31.0871H80.3616C79.6256 31.0871 79.3726 31.6575 79.2518 32.3248L79.0161 33.5512H77.8086Z" fill="#414469"/>
<path d="M83.1107 28.9366L82.9209 29.9577H83.6512L83.4672 30.8988H82.7369L82.5299 31.897C82.5021 32.0305 82.4848 32.1659 82.4782 32.302C82.4782 32.4617 82.5414 32.5815 82.7714 32.5815H83.0647L82.8979 33.5512C82.6736 33.6143 82.441 33.6431 82.2079 33.6368C81.5294 33.6368 81.1902 33.3174 81.1902 32.8325C81.1912 32.6099 81.2162 32.3881 81.2649 32.1708L81.5122 30.9045H81.0752L81.2534 29.9634H81.6962L81.8342 29.2276L83.1107 28.9366Z" fill="#414469"/>
<path d="M83.7427 32.4674C84.0593 32.6192 84.4034 32.7065 84.7547 32.724C85.0019 32.724 85.1112 32.6271 85.1112 32.5073C85.1112 32.3875 84.9962 32.2791 84.6799 32.1365C84.4629 32.0713 84.2702 31.944 84.1259 31.7704C83.9817 31.5969 83.8923 31.3849 83.8692 31.1611C83.8692 30.3683 84.5764 29.872 85.5942 29.872C85.9379 29.8574 86.2803 29.9218 86.5947 30.0603L86.3129 30.9273C86.0708 30.8264 85.8109 30.774 85.5482 30.7733C85.3067 30.7733 85.1514 30.8474 85.1514 30.99C85.1514 31.1326 85.2837 31.2011 85.5654 31.3209C85.9564 31.5091 86.4337 31.7829 86.4337 32.3191C86.4337 33.1747 85.6919 33.6253 84.6512 33.6253C84.2342 33.6394 83.8217 33.5366 83.4609 33.3287L83.7427 32.4674Z" fill="#414469"/>
</g>
<defs>
<clipPath id="clip0_245_12052">
<rect width="92" height="35" fill="white"/>
</clipPath>
</defs>
</svg>
