<svg width="22" height="25" viewBox="0 0 22 25" fill="none" xmlns="http://www.w3.org/2000/svg"><path d="M19.257 4.806a.227.227 0 0 0-.215-.198c-.09 0-1.865-.036-1.865-.036s-1.488-1.44-1.632-1.601c-.143-.144-.43-.108-.538-.072l-.753.234a5.382 5.382 0 0 0-.358-.882c-.52-1.008-1.31-1.548-2.242-1.548-.071 0-.125 0-.197.018-.036-.036-.054-.072-.09-.09-.412-.432-.932-.648-1.56-.63-1.2.036-2.402.918-3.388 2.466-.681 1.098-1.201 2.465-1.363 3.527-1.38.432-2.349.738-2.384.738-.7.216-.718.234-.807.9C1.829 8.136 0 22.336 0 22.336L15.348 25 22 23.344c-.018 0-2.725-18.412-2.743-18.538Zm-5.774-1.421a41.13 41.13 0 0 0-1.183.378c0-.612-.09-1.476-.359-2.196.915.144 1.363 1.188 1.542 1.818Zm-1.99.611c-.807.252-1.685.522-2.564.792.251-.954.717-1.89 1.291-2.52a2.64 2.64 0 0 1 .86-.63c.36.703.431 1.693.413 2.358ZM9.843.811c.287 0 .52.054.718.198a3.18 3.18 0 0 0-.933.738c-.77.828-1.362 2.105-1.595 3.347-.736.234-1.453.45-2.098.648C6.365 3.78 7.997.865 9.844.811Z" fill="#95BF47"/><path d="M19.033 4.609c-.09 0-1.864-.036-1.864-.036s-1.489-1.44-1.632-1.602a.287.287 0 0 0-.197-.09V25l6.652-1.656-2.726-18.537c-.035-.126-.143-.198-.233-.198Z" fill="#5E8E3E"/><path d="m11.649 8.046-.771 2.898s-.861-.396-1.883-.324c-1.506.09-1.506 1.044-1.506 1.278.09 1.296 3.478 1.584 3.675 4.625.144 2.394-1.255 4.032-3.299 4.158-2.438.125-3.783-1.314-3.783-1.314l.52-2.214s1.363 1.026 2.438.954c.7-.036.969-.63.933-1.026-.108-1.692-2.869-1.584-3.048-4.373-.144-2.34 1.38-4.698 4.751-4.914 1.309-.09 1.973.252 1.973.252Z" fill="#fff"/></svg>