<svg width="67" height="22" viewBox="0 0 67 22" fill="none" xmlns="http://www.w3.org/2000/svg"><path d="M5.903 10.434c-.8-.426-1.21-.785-1.21-1.278 0-.628.57-1.031 1.461-1.031 1.038 0 1.964.426 1.964.426l.731-2.197s-.672-.516-2.65-.516c-2.752 0-4.659 1.547-4.659 3.721 0 1.233.89 2.175 2.079 2.847.96.537 1.302.919 1.302 1.479 0 .583-.48 1.053-1.37 1.053-1.328 0-2.581-.672-2.581-.672l-.777 2.197s1.158.762 3.107.762c2.832 0 4.865-1.368 4.865-3.833 0-1.322-1.028-2.264-2.262-2.958Zm11.284-4.618c-1.393 0-2.49.65-3.334 1.636l-.046-.022 1.21-6.21h-3.152l-3.06 15.803h3.152l1.05-5.401c.411-2.04 1.485-3.295 2.49-3.295.708 0 .982.47.982 1.143 0 .426-.046.942-.137 1.368l-1.187 6.186h3.152l1.234-6.388c.136-.673.228-1.48.228-2.018-.001-1.749-.938-2.802-2.582-2.802Zm9.706 0c-3.791 0-6.303 3.363-6.303 7.106 0 2.398 1.507 4.326 4.34 4.326 3.723 0 6.235-3.273 6.235-7.106 0-2.219-1.325-4.326-4.271-4.326Zm-1.553 9.057c-1.073 0-1.53-.897-1.53-2.018 0-1.77.937-4.662 2.65-4.662 1.119 0 1.484.941 1.484 1.86 0 1.905-.936 4.82-2.604 4.82Zm13.886-9.057c-2.127 0-3.335 1.839-3.335 1.839h-.045l.183-1.66h-2.787a64.821 64.821 0 0 1-.64 4.103l-2.192 11.32h3.152l.868-4.574h.069s.647.404 1.85.404c3.7 0 6.12-3.721 6.12-7.487 0-2.084-.936-3.945-3.243-3.945Zm-3.015 9.1c-.818 0-1.302-.447-1.302-.447l.526-2.892c.365-1.927 1.393-3.205 2.49-3.205.959 0 1.256.874 1.256 1.703 0 1.995-1.21 4.842-2.97 4.842ZM46.97 1.378a1.782 1.782 0 0 0-1.804 1.793c0 .92.594 1.547 1.484 1.547h.046c.983 0 1.827-.65 1.85-1.793 0-.897-.616-1.547-1.576-1.547Zm-4.407 15.646h3.151l2.148-10.96h-3.176l-2.123 10.96ZM55.878 6.04h-2.193l.114-.515c.183-1.054.823-1.995 1.873-1.995a3.34 3.34 0 0 1 1.005.157l.617-2.421S56.746.997 55.58.997c-1.12 0-2.238.314-3.084 1.031-1.073.897-1.576 2.196-1.827 3.497l-.091.516h-1.462l-.457 2.331h1.462l-1.667 8.652h3.152l1.668-8.652h2.17l.433-2.331Zm7.583.023s-1.97 4.872-2.855 7.531h-.046c-.06-.856-.777-7.53-.777-7.53h-3.312l1.897 10.063c.046.224.023.359-.07.516-.365.694-.981 1.367-1.712 1.86-.594.426-1.256.695-1.781.875L55.672 22c.64-.134 1.964-.65 3.084-1.68 1.439-1.323 2.763-3.363 4.134-6.143l3.86-8.114h-3.29Z" fill="#000"/></svg>